<svg width="21" height="17" fill="none" xmlns="http://www.w3.org/2000/svg"><g clip-path="url(#a)"><path d="M17.325 14.5H3.675a.514.514 0 0 0-.525.5v1c0 .275.236.5.525.5h13.65a.514.514 0 0 0 .525-.5v-1c0-.275-.236-.5-.525-.5Zm2.1-10c-.87 0-1.575.672-1.575 1.5 0 .222.052.428.144.619L15.62 7.975c-.506.287-1.159.125-1.45-.362l-2.675-4.457c.351-.275.581-.687.581-1.156 0-.828-.705-1.5-1.575-1.5S8.925 1.172 8.925 2c0 .469.23.881.58 1.156L6.833 7.613c-.292.487-.949.65-1.45.362L3.008 6.619c.089-.188.144-.397.144-.619 0-.828-.705-1.5-1.575-1.5S0 5.172 0 6s.705 1.5 1.575 1.5c.085 0 .17-.013.253-.025L4.2 13.5h12.6l2.372-6.025c.082.013.168.025.253.025C20.295 7.5 21 6.828 21 6s-.706-1.5-1.575-1.5Z" fill="#FFB21C"/></g><defs><clipPath id="a"><path fill="#fff" transform="translate(0 .5)" d="M0 0h21v16H0z"/></clipPath></defs></svg>