<svg width="46" height="46" fill="none" xmlns="http://www.w3.org/2000/svg"><path d="M34.5 9.583h1.917V11.5a1.917 1.917 0 0 0 3.833 0V9.583h1.917a1.916 1.916 0 1 0 0-3.833H40.25V3.833a1.916 1.916 0 1 0-3.833 0V5.75H34.5a1.917 1.917 0 1 0 0 3.833Zm-21.083 3.834v19.166a1.917 1.917 0 1 0 3.833 0V13.417a1.916 1.916 0 1 0-3.833 0ZM41.4 17.25a1.916 1.916 0 0 0-1.495 2.262A17.25 17.25 0 1 1 26.488 6.095a1.955 1.955 0 1 0 .767-3.833A20.7 20.7 0 0 0 23 1.917 21.084 21.084 0 1 0 44.083 23a20.7 20.7 0 0 0-.421-4.217A1.917 1.917 0 0 0 41.4 17.25Zm-20.317 0v1.917A5.75 5.75 0 0 0 22.578 23a5.75 5.75 0 0 0-1.495 3.833v1.917a5.75 5.75 0 0 0 5.75 5.75h1.917a5.75 5.75 0 0 0 5.75-5.75v-1.917A5.75 5.75 0 0 0 33.005 23a5.75 5.75 0 0 0 1.495-3.833V17.25a5.75 5.75 0 0 0-5.75-5.75h-1.917a5.75 5.75 0 0 0-5.75 5.75Zm9.584 11.5a1.917 1.917 0 0 1-1.917 1.917h-1.917a1.917 1.917 0 0 1-1.916-1.917v-1.917a1.917 1.917 0 0 1 1.916-1.916h1.917a1.917 1.917 0 0 1 1.917 1.916v1.917Zm0-11.5v1.917a1.917 1.917 0 0 1-1.917 1.916h-1.917a1.917 1.917 0 0 1-1.916-1.916V17.25a1.917 1.917 0 0 1 1.916-1.917h1.917a1.917 1.917 0 0 1 1.917 1.917Z" fill="#000"/></svg>