<svg width="184" height="63" fill="none" xmlns="http://www.w3.org/2000/svg"><path d="M71.35 24.958c.116.433-.028.692-.374.808l-3.317.98c-.404.115-.606 0-.75-.404-.52-1.701-1.615-2.595-3.663-2.595-3.114 0-4.181 1.845-4.181 4.325v5.71c0 2.48 1.038 4.326 4.181 4.326 2.567 0 3.923-1.182 3.923-3.807v-.75h-3.375c-.288 0-.461-.144-.461-.49V29.89a.449.449 0 0 1 .404-.49h7.556c.317 0 .49.144.49.461v4.73c0 4.498-3.317 7.901-8.479 7.901-6.114 0-8.97-3.633-8.97-8.593V27.87c0-4.96 2.856-8.594 8.97-8.594 4.932.029 7.152 2.855 8.046 5.681Zm16.814 5.623v11.074c.029.23-.173.432-.404.461h-3.432a.449.449 0 0 1-.49-.404V39.838a5.335 5.335 0 0 1-4.672 2.624c-3.201 0-5.249-2.047-5.249-5.22 0-3.085 1.932-4.902 6.662-5.248a22 22 0 0 1 3.086-.029v-1.24c0-1.643-.865-2.306-2.336-2.306-1.5 0-1.932.605-2.336 1.557-.144.375-.288.432-.606.346l-3.374-.865c-.346-.087-.375-.289-.317-.52.461-2.422 2.769-4.21 6.806-4.21 4.269.03 6.662 2.077 6.662 5.854Zm-4.499 5.825v-1.614a21.3 21.3 0 0 0-2.71.086c-1.731.202-2.625.75-2.625 2.047 0 1.183.807 1.846 2.105 1.846 1.5 0 2.682-.807 3.23-2.365Zm16.67-11.65c2.134 0 3.547 1.269 4.21 3.086 1.269-1.846 2.798-3.086 4.932-3.086 2.971 0 4.672 2.365 4.672 5.883v11.016c0 .288-.259.461-.548.461h-3.518c-.318 0-.548-.173-.548-.461V31.446c0-1.528-.664-2.45-1.875-2.45-1.269 0-2.192 1.037-2.624 2.623v10.036c.029.23-.173.432-.404.461h-3.836c-.288 0-.404-.173-.404-.461V31.446c0-1.528-.692-2.45-1.874-2.45-1.298 0-2.22 1.095-2.625 2.681v10.007a.42.42 0 0 1-.375.461h-3.806a.42.42 0 0 1-.462-.375V25.592c0-.23.202-.432.433-.432h3.605c.23-.029.432.144.461.404v1.961c.98-1.442 2.452-2.769 4.586-2.769Zm33.108.375c.087.404-.029.692-.404.808l-3.259.951c-.403.116-.605-.029-.749-.404-.462-1.528-1.269-2.768-3.519-2.768-2.797 0-3.691 1.846-3.691 4.326v5.71c0 2.48 1.009 4.325 3.691 4.325 2.394 0 3.317-1.355 3.692-3.028.086-.375.346-.548.75-.404l3.258 1.038c.375.116.491.404.404.808-.778 3.316-3.172 6.027-8.133 6.027-5.595 0-8.392-3.634-8.392-8.594V27.9c0-4.96 2.884-8.593 8.392-8.593 4.845 0 7.124 2.566 7.96 5.825Zm16.353 5.45v11.074c.028.23-.174.432-.404.461h-3.432a.448.448 0 0 1-.49-.404V39.838a5.336 5.336 0 0 1-4.673 2.624c-3.201 0-5.248-2.047-5.248-5.22 0-3.085 1.932-4.902 6.662-5.248a21.988 21.988 0 0 1 3.085-.029v-1.24c0-1.643-.865-2.306-2.336-2.306-1.499 0-1.932.605-2.336 1.557-.144.375-.288.432-.605.346l-3.375-.865c-.346-.087-.374-.289-.317-.52.462-2.422 2.769-4.21 6.806-4.21 4.269.03 6.663 2.077 6.663 5.854Zm-4.528 5.825v-1.614c-.894-.03-1.817 0-2.711.086-1.731.202-2.625.75-2.625 2.047 0 1.183.808 1.846 2.106 1.846 1.528 0 2.682-.807 3.23-2.365Zm17.65-10.958v3.288c0 .403-.144.548-.548.548h-.49c-2.452 0-3.894 1.095-4.384 2.941v9.459a.42.42 0 0 1-.375.461h-3.893c-.231 0-.404-.202-.404-.433V25.564c0-.231.173-.433.375-.433h3.547c.375 0 .461.23.461.49V27.9c.808-1.5 2.308-2.97 4.932-2.97.663 0 .779.087.779.52Zm6.027 9.603v.634c0 1.788.923 3.028 3.086 3.028 2.106 0 2.711-.807 3.259-1.816.289-.462.404-.52.894-.318l2.423 1.24c.49.26.519.49.317.952-1.038 2.365-3.663 3.72-6.893 3.72-4.903 0-7.498-2.913-7.498-6.892v-3.922c0-3.864 2.422-6.892 7.441-6.892 4.787 0 7.123 3.028 7.123 6.806v2.71c0 .462-.144.779-.807.779l-9.345-.029Zm0-3.605v.577h5.913v-.577c0-1.643-.923-2.941-2.942-2.941s-2.971 1.298-2.971 2.941ZM27.254 5.954H6.662a.64.64 0 0 0-.634.635v29.933c0 10.67 8.652 19.35 19.351 19.35h1.875c10.67 0 19.323-8.652 19.323-19.35V25.304c.029-10.698-8.623-19.35-19.323-19.35ZM40.405 36.84c0 7.267-5.364 12.775-13.67 12.775-9.863 0-14.478-5.854-14.478-13.87v-9.719c0-8.017 4.615-13.87 14.478-13.87 7.989 0 11.593 4.556 13.035 9.112.202.692-.057 1.096-.605 1.298L33.8 24.15c-.635.201-.98 0-1.183-.635-.836-2.74-2.624-4.21-5.883-4.21-5.047 0-6.749 2.97-6.749 6.979v9.228c0 4.008 1.673 6.978 6.749 6.978 4.153 0 6.345-1.932 6.345-6.142v-1.183h-5.538c-.432 0-.75-.26-.75-.778v-5.104c0-.49.289-.808.75-.808h12.084c.49 0 .779.26.779.75v7.613Z" fill="#000"/></svg>