<svg width="242" height="86" fill="none" xmlns="http://www.w3.org/2000/svg"><g clip-path="url(#a)"><path d="M108.919 56.996h-7.1v-28.2h7.1v28.2Z" fill="#000"/><path d="M120.419 46.296c-2 0-3.6-1.6-3.6-3.6s1.6-3.6 3.6-3.6c2 .1 3.6 1.7 3.5 3.7-.2 1.8-1.7 3.4-3.5 3.5Z" fill="#575757"/><path d="M142.319 28.796c1.9-.1 3.7.1 5.5.5 3 .7 5.2 3.4 5.4 6.5-.1 2.5-1.5 4.7-3.8 5.7 4 1.2 6 3.6 6 7.3.1 3.5-2.2 6.6-5.5 7.6-1.7.5-3.5.7-5.3.7h-12.9v-28.3h10.6Zm-3.6 11.2h2.6c3.4 0 4.8-.9 4.8-3.1s-1.4-3.1-4.6-3.1h-2.8v6.2Zm0 11.8h3.5c4.4 0 5.9-.9 5.9-3.4 0-2.6-1.5-3.4-6.2-3.4h-3.1v6.8h-.1Z" fill="#000"/><path d="M165.419 46.296c-2 0-3.6-1.6-3.6-3.6s1.6-3.6 3.6-3.6c2 .1 3.6 1.7 3.5 3.7-.1 1.8-1.6 3.4-3.5 3.5Z" fill="#575757"/><path d="M204.02 56.996h-7.6l-2.2-5.6h-12.7l-2.1 5.6h-7.4l11.4-28.2h8.1l12.5 28.2Zm-20.6-10.5h8.7l-4.6-10.9-4.1 10.9Z" fill="#000"/><path d="M210.419 46.296c-2 0-3.6-1.6-3.6-3.6s1.6-3.6 3.6-3.6c2 .1 3.6 1.7 3.5 3.7-.1 1.8-1.6 3.4-3.5 3.5Z" fill="#575757"/><path d="m240.719 36.396-.5-.2c-2.6-1.5-5.6-2.3-8.6-2.5-2.6 0-4.2.9-4.2 2.3 0 1.2 1.4 2.2 4.6 3.3l2.2.8c5.4 1.9 7.8 4.6 7.8 8.9 0 5-4.4 8.4-11 8.4-2.6 0-5.1-.6-7.4-1.5-.9-.3-1.7-.7-2.5-1.2v-6.1c1.4 1 3 1.8 4.5 2.4 1.6.7 3.4 1.1 5.2 1.1 2.8 0 4.3-.9 4.3-2.6 0-1.4-1-2.2-3.8-3.2l-1.5-.5c-1.6-.5-3.2-1.2-4.7-2-1-.5-1.9-1.2-2.6-2.1-1.2-1.5-1.9-3.3-1.9-5.3 0-4.8 4.2-8 10.7-8 3.3 0 6.6.8 9.6 2.2l-.2 5.8ZM42.877.029.026 42.879l42.85 42.85 42.85-42.85L42.877.029Z" fill="#000"/><path d="M48.497 42.869c0 6 1.8 11.8 5.3 16.6l3.5-2.7c-5.8-8.3-5.8-19.4 0-27.8l-3.5-2.7c-3.4 4.8-5.3 10.6-5.3 16.6Zm7.5 0c0 4.3 1.3 8.5 3.8 12.1l3.5-2.7c-3.7-5.6-3.7-13 0-18.6l-3.5-2.7c-2.5 3.4-3.8 7.6-3.8 11.9Zm7.5 0c0 2.7.8 5.3 2.2 7.5l3.5-2.7c-1.7-2.9-1.7-6.6 0-9.5l-3.5-2.7c-1.5 2.1-2.2 4.7-2.2 7.4ZM37.497 42.869c0-6-1.8-11.8-5.3-16.6l-3.5 2.7c5.8 8.3 5.8 19.4 0 27.8l3.5 2.7c3.4-4.8 5.3-10.6 5.3-16.6Zm-7.5 0c0-4.3-1.3-8.5-3.8-12.1l-3.5 2.8c3.7 5.6 3.7 13 0 18.6l3.5 2.7c2.5-3.5 3.8-7.7 3.8-12Zm-7.4 0c0-2.7-.8-5.3-2.2-7.5l-3.6 2.7c1.7 2.9 1.7 6.6 0 9.5l3.5 2.7c1.5-2.1 2.3-4.7 2.3-7.4Z" fill="#575757"/></g><defs><clipPath id="a"><path fill="#fff" d="M0 0h242v85.7H0z"/></clipPath></defs></svg>