<svg width="69" height="69" fill="none" xmlns="http://www.w3.org/2000/svg"><path d="M43.125 52.612c-1.294 0-2.156-.43-3.45-.862L34.5 49.594l-5.175 2.156c-.863.431-2.156.862-3.45.862-.863 0-1.294 0-2.156-.43L21.562 69 34.5 60.375 47.438 69 44.85 52.181c-.431.431-1.294.431-1.725.431Zm12.506-27.168c-.431-.863-.431-2.156 0-3.019l2.588-5.175c.862-1.725 0-3.881-2.157-4.744l-5.606-2.156c-.862-.431-1.725-1.294-2.156-2.156l-2.156-5.607C45.713.863 44.419 0 43.125 0c-.431 0-1.294 0-1.725.431L35.794 3.02H34.5c-.431 0-.862 0-1.294-.432L27.6.431C27.169 0 26.306 0 25.875 0c-1.294 0-2.587.863-3.45 2.156l-2.156 6.038c0 .862-.863 1.725-1.725 2.156l-6.038 2.156c-1.725.431-2.587 2.588-1.725 4.744l2.588 5.606c.431.863.431 2.156 0 3.019L10.78 31.05c-.862 1.725 0 3.881 2.156 4.744l5.607 2.156c.862.431 1.725 1.294 2.156 2.156l2.156 5.606c.431 1.725 1.725 2.588 3.019 2.588.431 0 .863 0 1.294-.431l5.606-2.588c.431 0 .863-.431 1.294-.431.431 0 .862 0 1.293.431l5.607 2.588c.431.431.862.431 1.294.431 1.293 0 2.587-.862 3.45-2.156l2.156-5.606c.431-.863 1.294-1.725 2.156-2.157l5.606-2.156c1.725-.863 3.019-3.019 2.157-4.744l-2.157-6.037ZM34.5 41.4c-9.488 0-17.25-7.762-17.25-17.25 0-9.487 7.762-17.25 17.25-17.25 9.487 0 17.25 7.762 17.25 17.25S43.987 41.4 34.5 41.4Z" fill="#FFB21C"/><path d="M47.438 24.15a12.938 12.938 0 1 1-25.876 0 12.938 12.938 0 0 1 25.875 0Z" fill="#FFB21C"/></svg>