<svg width="110" height="38" viewBox="0 0 110 38" fill="none" xmlns="http://www.w3.org/2000/svg">
<path d="M42.6552 14.9907C42.7242 15.2507 42.638 15.4067 42.4311 15.4761L40.4483 16.0655C40.2069 16.1348 40.0862 16.0655 40 15.8228C39.6897 14.8 39.0345 14.2625 37.8104 14.2625C35.9483 14.2625 35.3104 15.3721 35.3104 16.863V20.2955C35.3104 21.7864 35.9311 22.896 37.8104 22.896C39.3449 22.896 40.1552 22.1852 40.1552 20.6076V20.1568H38.138C37.9655 20.1568 37.8621 20.0702 37.8621 19.8621V17.9551C37.8449 17.8165 37.9483 17.6778 38.1035 17.6604C38.1207 17.6604 38.138 17.6604 38.138 17.6604H42.6207C42.8104 17.6604 42.9138 17.7471 42.9138 17.9378V20.7809C42.9138 23.4854 40.9311 25.531 37.8449 25.531C34.1897 25.531 32.4828 23.3467 32.4828 20.3649V16.7416C32.4828 13.7598 34.1897 11.5754 37.8449 11.5754C40.7931 11.5928 42.1207 13.2917 42.6552 14.9907ZM52.7069 18.3712V25.0283C52.7242 25.167 52.6035 25.2883 52.4655 25.3057C52.4483 25.3057 52.4483 25.3057 52.4311 25.3057H50.4138C50.2759 25.323 50.138 25.219 50.1207 25.063C50.1207 25.0456 50.1207 25.0283 50.1207 25.0283V23.9361C49.5345 24.9243 48.4828 25.531 47.3276 25.5137C45.4138 25.5137 44.1897 24.2828 44.1897 22.3759C44.1897 20.5209 45.3449 19.4287 48.1724 19.2207C48.7759 19.1687 49.3966 19.1687 50.0173 19.2033V18.4579C50.0173 17.4697 49.5 17.071 48.6207 17.071C47.7242 17.071 47.4655 17.4351 47.2242 18.0072C47.138 18.2325 47.0518 18.2672 46.8621 18.2152L44.8449 17.6951C44.638 17.6431 44.6207 17.5217 44.6552 17.3831C44.9311 15.9268 46.3104 14.852 48.7242 14.852C51.2759 14.8693 52.7069 16.1002 52.7069 18.3712ZM50.0173 21.8731V20.9023C49.4828 20.885 48.9311 20.9023 48.3966 20.9543C47.3621 21.0757 46.8276 21.405 46.8276 22.1852C46.8276 22.8959 47.3104 23.2947 48.0862 23.2947C48.9828 23.2947 49.6897 22.8093 50.0173 21.8731ZM59.9828 14.8693C61.2586 14.8693 62.1035 15.6321 62.5 16.7243C63.2587 15.6148 64.1724 14.8693 65.4483 14.8693C67.2242 14.8693 68.2414 16.2909 68.2414 18.4059V25.0283C68.2414 25.2017 68.0862 25.3057 67.9138 25.3057H65.8104C65.6207 25.3057 65.4828 25.2017 65.4828 25.0283V18.8913C65.4828 17.9725 65.0862 17.4177 64.3621 17.4177C63.6035 17.4177 63.0518 18.0418 62.7931 18.9953V25.0283C62.8104 25.167 62.6897 25.2883 62.5518 25.3057H62.5345H60.2587C60.0862 25.3057 60.0173 25.2017 60.0173 25.0283V18.8913C60.0173 17.9725 59.6035 17.4177 58.8966 17.4177C58.1207 17.4177 57.569 18.0765 57.3276 19.03V25.0456C57.3449 25.1843 57.2414 25.3057 57.1035 25.323C57.0862 25.323 57.069 25.323 57.0518 25.323H54.8276C54.6897 25.3403 54.569 25.2363 54.5518 25.0976C54.5518 25.0803 54.5518 25.063 54.5518 25.0456V15.3721C54.5518 15.2334 54.6724 15.112 54.8104 15.112H54.8276H56.9655C57.1035 15.0947 57.2242 15.1987 57.2414 15.3547V15.3721V16.5336C57.8276 15.6668 58.7069 14.8693 59.9828 14.8693ZM79.7759 15.0947C79.8276 15.3374 79.7587 15.5107 79.5345 15.5801L77.5862 16.1522C77.3449 16.2215 77.2242 16.1348 77.138 15.9095C76.8621 14.9907 76.3793 14.2452 75.0345 14.2452C73.3621 14.2452 72.8276 15.3547 72.8276 16.8456V20.2782C72.8276 21.7691 73.4311 22.8786 75.0345 22.8786C76.4655 22.8786 77.0173 22.0638 77.2414 21.0583C77.2931 20.8329 77.4483 20.7289 77.6897 20.8156L79.638 21.4397C79.8621 21.5091 79.9311 21.6824 79.8793 21.9251C79.4138 23.9188 77.9828 25.5484 75.0173 25.5484C71.6724 25.5484 70 23.364 70 20.3822V16.7589C70 13.7771 71.7242 11.5928 75.0173 11.5928C77.9138 11.5928 79.2759 13.1357 79.7759 15.0947ZM89.5518 18.3712V25.0283C89.569 25.167 89.4483 25.2883 89.3104 25.3057C89.2931 25.3057 89.2931 25.3057 89.2759 25.3057H87.2586C87.1207 25.323 86.9828 25.219 86.9656 25.063C86.9656 25.0456 86.9656 25.0283 86.9656 25.0283V23.9361C86.3793 24.9243 85.3276 25.531 84.1724 25.5137C82.2587 25.5137 81.0345 24.2828 81.0345 22.3759C81.0345 20.5209 82.1897 19.4287 85.0173 19.2207C85.6207 19.1687 86.2414 19.1687 86.8621 19.2033V18.4579C86.8621 17.4697 86.3449 17.071 85.4655 17.071C84.569 17.071 84.3104 17.4351 84.069 18.0072C83.9828 18.2325 83.8966 18.2672 83.7069 18.2152L81.6897 17.6951C81.4828 17.6431 81.4655 17.5217 81.5 17.3831C81.7759 15.9268 83.1552 14.852 85.569 14.852C88.1207 14.8693 89.5518 16.1002 89.5518 18.3712ZM86.8449 21.8731V20.9023C86.3104 20.885 85.7587 20.9023 85.2242 20.9543C84.1897 21.0757 83.6552 21.405 83.6552 22.1852C83.6552 22.8959 84.138 23.2947 84.9138 23.2947C85.8276 23.2947 86.5173 22.8093 86.8449 21.8731ZM97.3966 15.2854V17.2617C97.3966 17.5044 97.3104 17.5911 97.069 17.5911H96.7759C95.3104 17.5911 94.4483 18.2499 94.1552 19.3594V25.0456C94.1724 25.1843 94.069 25.3057 93.9311 25.323H93.9138H91.6035C91.4655 25.323 91.3621 25.2017 91.3621 25.063C91.3621 25.063 91.3621 25.063 91.3621 25.0456V15.3547C91.3621 15.216 91.4655 15.0947 91.5862 15.0947C91.6035 15.0947 91.6207 15.0947 91.6207 15.0947H93.7069C93.9311 15.0947 93.9828 15.2334 93.9828 15.3894V16.7589C94.4655 15.8575 95.3621 14.9733 96.9311 14.9733C97.3276 14.9733 97.3966 15.0253 97.3966 15.2854ZM101 21.0583V21.4397C101 22.5146 101.552 23.26 102.845 23.26C104.103 23.26 104.466 22.7746 104.793 22.1678C104.966 21.8905 105.035 21.8558 105.328 21.9771L106.776 22.7226C107.069 22.8786 107.086 23.0173 106.966 23.2947C106.345 24.7162 104.776 25.531 102.845 25.531C99.9138 25.531 98.3621 23.7801 98.3621 21.3877V19.03C98.3621 16.7069 99.8104 14.8866 102.81 14.8866C105.672 14.8866 107.069 16.7069 107.069 18.978V20.6076C107.069 20.885 106.983 21.0757 106.586 21.0757L101 21.0583ZM101 18.8913V19.238H104.535V18.8913C104.535 17.9031 103.983 17.123 102.776 17.123C101.569 17.123 101 17.9031 101 18.8913Z" fill="white"/>
<path d="M16.2931 3.56616H3.98276C3.77587 3.56616 3.60345 3.73952 3.60345 3.94756V21.9425C3.60345 28.3569 8.77587 33.575 15.1724 33.575H16.2931C22.6724 33.575 27.8448 28.3742 27.8448 21.9425V15.1987C27.8621 8.76701 22.6897 3.56616 16.2931 3.56616ZM24.1552 22.1332C24.1552 26.5019 20.9483 29.8131 15.9828 29.8131C10.0862 29.8131 7.32759 26.2939 7.32759 21.4744V15.6321C7.32759 10.8127 10.0862 7.29343 15.9828 7.29343C20.7586 7.29343 22.9138 10.0325 23.7759 12.7717C23.8966 13.1877 23.7414 13.4304 23.4138 13.5518L20.2069 14.5053C19.8276 14.6266 19.6207 14.5053 19.5 14.1239C19 12.4769 17.931 11.5928 15.9828 11.5928C12.9655 11.5928 11.9483 13.3784 11.9483 15.7882V21.3357C11.9483 23.7454 12.9483 25.5311 15.9828 25.5311C18.4655 25.5311 19.7759 24.3695 19.7759 21.8385V21.1277H16.4655C16.2069 21.1277 16.0172 20.9717 16.0172 20.6596V17.5911C16.0172 17.2964 16.1897 17.1057 16.4655 17.1057H23.6897C23.9828 17.1057 24.1552 17.2617 24.1552 17.5564V22.1332Z" fill="white"/>
</svg>
