<svg width="110" height="41" viewBox="0 0 110 41" fill="none" xmlns="http://www.w3.org/2000/svg">
<path d="M13.7088 16.9061C13.6904 17.4672 13.5805 19.0239 12.2426 20.128C10.7947 21.3227 8.33889 21.5942 6.56115 21.5942C5.88304 21.5942 5.1866 21.5761 4.5085 21.5037C3.11563 21.3408 1.52116 20.9969 0.65978 19.7117C0.12829 18.8972 0.0733095 18.0464 0.0549822 17.069H4.61846C4.61846 17.2138 4.56348 17.8654 5.00333 18.2455C5.24159 18.4628 5.80973 18.68 6.57947 18.68C6.70776 18.68 7.71576 18.6619 8.30223 18.2274C8.98034 17.7206 8.90703 16.7432 8.90703 16.5622C8.90703 16.0373 8.92536 15.5304 8.92536 15.0236C8.70543 15.3675 8.68711 15.4037 8.48551 15.5485C7.73409 16.1459 6.57947 16.2907 5.66311 16.2907C4.32523 16.2907 3.18894 16.0373 2.10763 15.2227C1.19127 14.5168 0 13.0506 0 10.2812C0 9.6839 0.0549822 7.2946 1.6128 5.66553C2.71243 4.50708 4.39853 4.07267 5.95635 4.09077C6.32289 4.09077 7.73409 4.09077 8.77874 4.9053C8.99867 5.06821 9.12696 5.19491 9.43852 5.61123L9.42019 4.43468H13.7637L13.7454 16.2002C13.7454 16.4536 13.7454 16.6708 13.7088 16.9061ZM7.8074 7.72902C7.66078 7.65661 7.34922 7.51181 6.90936 7.52991C6.5978 7.52991 6.26791 7.60231 6.01133 7.72902C5.29657 8.07293 4.82006 8.85126 4.82006 10.426C4.82006 11.4759 5.05831 12.1275 5.36988 12.4714C5.53482 12.6705 5.73642 12.7791 5.97467 12.8877C6.06631 12.942 6.41453 13.0325 6.78107 13.0325C6.98267 13.0325 7.31256 13.0325 7.73409 12.8334C8.74209 12.399 8.85205 11.1682 8.85205 10.2269C8.85205 9.33998 8.76041 8.19964 7.8074 7.72902ZM23.3855 16.9242V15.9649C23.1839 16.1097 22.9457 16.3088 22.4508 16.5441C21.9194 16.8156 20.7647 17.2138 19.1886 17.2138C18.877 17.2138 18.0157 17.2138 17.1726 16.9061C15.5415 16.2726 14.6618 14.8788 14.6618 13.1954C14.6618 12.5257 14.8084 11.0233 16.4029 9.97351C17.4475 9.28568 18.7854 9.10467 20.0133 8.94177C20.7281 8.85126 21.4795 8.74266 22.1759 8.61595C22.4875 8.54355 22.8357 8.47115 23.1473 8.38064C23.1473 8.32634 23.1473 8.00053 23.074 7.80142C22.9274 7.2946 22.5608 6.93258 21.4429 6.93258C21.0763 6.93258 20.8381 6.98689 20.7098 7.00499C19.9217 7.2041 19.8484 7.83762 19.7751 8.10913L15.065 8.21774C15.12 7.94623 15.1933 7.71091 15.2299 7.47561C15.3582 6.98689 15.6148 6.13615 16.6228 5.35782C17.6308 4.59759 19.1519 4.05456 21.8827 4.07267C23.862 4.07267 26.5378 4.39848 27.5092 6.40766C27.7841 6.96879 27.8757 7.4575 27.8757 8.61595L27.8574 15.4037C27.8574 16.3088 27.9857 16.5079 28.2972 16.9423L23.3855 16.9242ZM21.2229 11.7112C20.6914 11.8379 19.9217 12.0008 19.5368 12.4714C19.4818 12.5438 19.3169 12.761 19.3169 13.0506C19.3169 13.4307 19.6285 14.01 20.5631 14.01C21.003 14.01 21.3879 13.8652 21.7911 13.6661C23.2023 12.9239 23.129 11.6931 23.129 11.1139C22.4875 11.3492 21.8644 11.5302 21.2229 11.7112ZM51.5728 16.9785L51.5911 9.10467C51.5911 8.32634 51.5911 7.65661 51.3529 6.93258C50.7481 5.10441 49.1719 4.57949 48.5305 4.39848C47.7791 4.18127 47.1926 4.19937 46.881 4.19937C44.8284 4.16317 43.7837 4.9596 43.1973 5.55693C43.0323 5.71984 42.7574 5.99135 42.5375 6.49817C42.2626 6.00945 42.0976 5.71983 41.9144 5.53883C40.7048 4.18127 38.5971 4.18127 38.1573 4.18127C36.4345 4.18127 35.3715 4.8329 34.8584 5.30352C34.6568 5.50262 34.4735 5.73793 34.1803 6.24475V4.47088H29.3236L29.3052 16.9423H34.3452L34.3635 10.1726C34.3635 9.7925 34.4369 9.53909 34.4918 9.39428C34.8401 8.36254 35.8847 8.23584 36.2329 8.23584C36.6178 8.23584 37.6258 8.36254 37.919 9.41238C37.9923 9.70199 37.9923 9.9011 37.9923 10.1907L37.9557 16.9423H42.9773L42.9957 10.2993C42.9957 9.99161 42.9957 9.7382 43.069 9.44859C43.3805 8.34444 44.4435 8.25394 44.8284 8.25394C46.7344 8.25394 46.5878 9.93731 46.5878 10.426L46.5695 16.9423L51.5728 16.9785ZM63.962 16.5622C63.1006 17.069 62.111 17.3043 61.103 17.3043C59.8201 17.3043 58.9037 16.888 58.4638 16.5984C58.2439 16.4355 58.0973 16.2545 57.9324 16.0735V16.9966H53.0756L53.094 0H58.0973L58.1156 5.39402C58.3356 5.17681 58.5005 5.03201 58.7754 4.8329C59.5085 4.34418 60.4065 4.16317 61.3046 4.16317C62.8624 4.16317 64.1819 4.70619 65.2266 5.82844C65.978 6.64297 66.8027 8.00053 66.8027 10.4984C66.8211 11.2044 66.7661 14.8788 63.962 16.5622ZM61.3412 8.41684C60.9014 7.78332 60.2233 7.69281 59.9484 7.69281C59.7468 7.69281 59.2886 7.74712 58.8854 8.05483C58.079 8.70645 57.9873 9.7925 57.9873 10.7337C57.9873 11.6026 58.079 12.761 58.8121 13.3402C58.9587 13.467 59.3619 13.7204 59.93 13.7204C60.1499 13.7204 60.7364 13.648 61.1946 13.1954C61.6161 12.761 61.8727 12.0008 61.8727 10.7337C61.8727 9.95541 61.7994 9.06847 61.3412 8.41684ZM72.7224 16.9966L72.7591 0H67.7191L67.7008 16.9966H72.7224ZM74.2436 3.31244V0.0181018H79.2652V3.31244H74.2436ZM74.2069 17.0147L74.2253 4.54329H79.2469L79.2286 17.0147H74.2069ZM94.2386 17.0328L94.2569 9.15897C94.2569 8.27204 94.1836 7.83762 94.092 7.4213C93.8904 6.60677 93.4872 5.79224 92.8274 5.24921C91.6361 4.23557 90.0783 4.21747 89.6201 4.21747C88.3372 4.21747 86.981 4.54329 86.0646 5.46642C85.8264 5.70173 85.7714 5.75603 85.4598 6.20855V4.54329H80.7314L80.7131 17.0147H85.7164L85.7348 10.3717C85.7348 9.8468 85.7164 8.32634 87.5675 8.32634C88.7038 8.32634 89.0703 8.92367 89.1986 9.35808C89.2719 9.64769 89.2719 9.91921 89.2719 10.2088L89.2536 17.0147L94.2386 17.0328ZM108.955 17.0509C108.937 17.612 108.827 19.1687 107.489 20.2728C106.06 21.4675 103.585 21.739 101.808 21.739C101.13 21.739 100.433 21.7209 99.7551 21.6485C98.3622 21.4856 96.7494 21.1417 95.9064 19.8565C95.3749 19.042 95.3199 18.1912 95.3016 17.2138H99.8651C99.8651 17.3586 99.8101 18.0102 100.25 18.3904C100.488 18.6076 101.056 18.8248 101.826 18.8248C101.954 18.8248 102.962 18.8067 103.549 18.3722C104.227 17.8654 104.154 16.888 104.154 16.707C104.154 16.1821 104.172 15.6752 104.172 15.1684C103.952 15.5123 103.934 15.5485 103.732 15.6933C102.981 16.2907 101.826 16.4355 100.91 16.4355C99.5718 16.4355 98.4172 16.2002 97.3542 15.3675C96.4379 14.6616 95.2466 13.1954 95.2466 10.426C95.2466 9.8287 95.3016 7.4394 96.8594 5.81034C97.959 4.65189 99.6451 4.21747 101.203 4.23557C101.569 4.23557 102.981 4.23557 104.025 5.05011C104.245 5.21301 104.374 5.33972 104.685 5.75603L104.667 4.57949H109.01L108.992 16.345C108.992 16.5984 108.992 16.8156 108.955 17.0509ZM103.054 7.87382C102.907 7.80142 102.596 7.65661 102.156 7.67471C101.844 7.67471 101.514 7.74712 101.258 7.87382C100.543 8.21773 100.067 8.99607 100.067 10.5708C100.067 11.6207 100.305 12.2723 100.616 12.6162C100.781 12.8153 100.983 12.9239 101.221 13.0325C101.313 13.0868 101.661 13.1773 102.028 13.1773C102.229 13.1773 102.559 13.1773 102.981 12.9782C103.989 12.5438 104.099 11.313 104.099 10.3717C104.099 9.50289 104.007 8.34444 103.054 7.87382ZM25.6031 35.8214C26.9593 35.8214 28.3522 35.6041 28.7737 35.5679V32.1831C28.2789 32.2736 28.1689 32.2736 27.8757 32.2736C26.5561 32.2736 26.4828 31.4772 26.4828 30.9704L26.5745 26.1737H28.7737V23.4767H26.6295L26.6661 19.5488H21.6261L21.5528 23.4586H19.7934V26.1556H21.5162L21.4245 32.2012C21.4245 32.6356 21.4429 33.0882 21.5711 33.5407C21.956 34.8077 22.9457 35.8033 25.6031 35.8214ZM48.9703 30.3368C48.9703 30.3368 48.9703 30.9161 49.0803 31.2962C49.2453 31.7849 49.7401 32.6899 51.078 32.6718C51.8477 32.6718 52.2692 32.4003 52.5075 32.2012C53.0207 31.7849 53.2589 31.2419 53.3689 31.079L57.4742 32.7985C57.3459 32.9976 57.1993 33.2511 56.8694 33.6312C55.9897 34.6448 54.9817 35.1878 54.5602 35.405C53.9553 35.6947 52.6358 36.2015 50.8397 36.2015C49.7951 36.2015 48.7871 36.0567 47.8524 35.6766C45.2499 34.6086 43.857 32.1107 43.8754 29.3956C43.8754 26.8253 45.085 25.2324 45.7997 24.5446C47.6141 22.8431 50.1066 22.7164 50.8214 22.7164C51.6828 22.7164 54.2486 22.8431 56.0813 24.798C56.6861 25.4496 57.1443 26.2642 57.4192 27.1149C57.7491 28.201 57.7857 29.2508 57.7857 30.3911L48.9703 30.3368ZM52.5625 27.0244C52.2326 25.9927 51.2979 25.8479 50.913 25.8479C50.5282 25.866 50.2716 25.9746 50.125 26.047C49.1903 26.4452 49.0803 27.4588 49.0253 27.7303H52.6724C52.6541 27.5855 52.6541 27.3321 52.5625 27.0244ZM66.8394 27.1149C67.0776 27.1149 67.3342 27.133 67.5725 27.1692V22.9879C66.2529 22.9879 65.1899 23.0241 64.072 23.8025C63.7971 23.9654 63.6321 24.1102 63.3939 24.3274V23.2413H58.5738L58.5555 35.7128H63.5405L63.5588 29.8481C63.5588 29.4137 63.5588 29.0698 63.7054 28.6716C64.3102 26.9701 66.4545 27.0968 66.8394 27.1149ZM76.2779 35.7309V34.7715C76.0763 34.9163 75.8381 35.1154 75.3432 35.3507C74.8117 35.6223 73.6571 36.0205 72.081 36.0205C71.7694 36.0205 70.908 36.0205 70.065 35.7128C68.4339 35.0792 67.5542 33.6855 67.5542 32.0021C67.5542 31.3324 67.7008 29.83 69.2952 28.7802C70.3399 28.0742 71.6778 27.9113 72.9057 27.7484C73.6021 27.6579 74.3719 27.5493 75.0683 27.4226C75.3799 27.3502 75.7281 27.2778 76.0396 27.1873C76.0396 27.133 76.0396 26.8072 75.9663 26.6081C75.8197 26.1013 75.4532 25.7393 74.3352 25.7393C73.9687 25.7393 73.7304 25.7936 73.6021 25.8117C72.8141 26.0108 72.7408 26.6443 72.6674 26.9158L67.9573 27.0244C68.0123 26.7529 68.0856 26.5176 68.1223 26.2823C68.2506 25.7936 68.5072 24.9428 69.5152 24.1645C70.5232 23.4043 72.0443 22.8612 74.7751 22.8793C76.7544 22.8793 79.4302 23.2051 80.4015 25.2143C80.6764 25.7755 80.7681 26.2823 80.7681 27.4226L80.7497 34.2104C80.7497 35.1335 80.878 35.3145 81.1896 35.749L76.2779 35.7309ZM74.1153 30.4997C73.5838 30.6264 72.8324 30.7894 72.4292 31.26C72.3742 31.3324 72.2093 31.5496 72.2093 31.8392C72.2093 32.2193 72.5208 32.7985 73.4555 32.7985C73.8954 32.7985 74.2802 32.6537 74.6834 32.4546C76.0946 31.7125 76.0213 30.4816 76.0213 29.9024C75.3799 30.1377 74.7567 30.3368 74.1153 30.4997ZM90.4082 36.0567C90.0416 36.0567 88.7221 36.0567 87.6774 35.3507C87.5125 35.224 87.4025 35.1335 87.146 34.8982V40.256H82.2159L82.2343 23.2594H87.1276V24.2188C87.3659 23.9292 87.4758 23.8387 87.6225 23.7301C88.0806 23.3681 89.0337 22.9155 90.4815 22.9155C94.4219 22.9155 95.9797 26.1013 95.9797 29.5585C95.9797 33.0882 94.3302 36.0748 90.4082 36.0567ZM90.4998 27.2235C90.06 26.6443 89.4002 26.5538 89.1619 26.5538C88.9604 26.5538 88.5755 26.5719 88.1906 26.7891C87.1643 27.3321 87.1093 28.5992 87.1093 29.5766C87.1093 30.5359 87.1826 31.8211 88.1539 32.346C88.5388 32.5632 88.8687 32.5632 89.0337 32.5632C89.2536 32.5632 89.6018 32.5451 90.005 32.3098C90.903 31.7487 91.0313 30.554 91.0313 29.649C91.0313 28.8707 90.9763 27.8751 90.4998 27.2235ZM110 23.3138H104.795C104.777 23.4586 102.889 31.441 102.889 31.441L101.093 23.3138H95.8514L99.8284 34.7715C100.03 35.3326 100.213 35.8576 100.213 36.0386C100.213 36.4911 99.865 36.6359 99.1686 36.6359C98.6738 36.6359 98.2156 36.5816 97.7391 36.5635V40.0931L99.132 40.2379C99.5535 40.2922 99.9933 40.256 100.397 40.256C101.643 40.256 102.614 40.2741 103.622 39.4958C104.575 38.7175 105.015 37.5952 105.4 36.4911L110 23.3138ZM42.8674 25.9203C42.6658 24.8704 42.1709 24.2369 41.8411 23.9292C40.943 23.0422 39.5501 22.6802 38.3406 22.6802C36.5078 22.6802 35.3715 23.3681 34.8767 23.8387C34.7118 24.0016 34.5835 24.1283 34.3086 24.4722L34.3269 18.6981H29.3236L29.3052 35.6947H34.2902L34.3086 26.8072H38.7621L38.7438 35.6947H42.9773L42.9957 27.5674C43.014 26.9339 42.9957 26.5357 42.8674 25.9203Z" fill="white"/>
</svg>
