<svg width="110" height="40" viewBox="0 0 110 40" fill="none" xmlns="http://www.w3.org/2000/svg">
<g clip-path="url(#clip0_2_1080)">
<path d="M49.5086 26.5769H46.2814V13.7332H49.5086V26.5769Z" fill="white"/>
<path d="M54.7359 21.7036C53.8268 21.7036 53.0995 20.9748 53.0995 20.0639C53.0995 19.153 53.8268 18.4243 54.7359 18.4243C55.645 18.4699 56.3723 19.1986 56.3268 20.1095C56.2359 20.9293 55.5541 21.658 54.7359 21.7036Z" fill="#575757"/>
<path d="M64.6904 13.7333C65.5541 13.6877 66.3723 13.7788 67.1904 13.961C68.5541 14.2798 69.5541 15.5096 69.645 16.9215C69.5995 18.0601 68.9632 19.0621 67.9177 19.5175C69.7359 20.0641 70.645 21.1572 70.645 22.8423C70.6904 24.4364 69.645 25.8483 68.145 26.3038C67.3723 26.5315 66.5541 26.6226 65.7359 26.6226H59.8723V13.7333H64.6904ZM63.0541 18.8344H64.2359C65.7813 18.8344 66.4177 18.4244 66.4177 17.4224C66.4177 16.4205 65.7813 16.0105 64.3268 16.0105H63.0541V18.8344ZM63.0541 24.2087H64.645C66.645 24.2087 67.3268 23.7988 67.3268 22.6602C67.3268 21.476 66.645 21.1116 64.5086 21.1116H63.0995V24.2087H63.0541Z" fill="white"/>
<path d="M75.1904 21.7036C74.2813 21.7036 73.5541 20.9748 73.5541 20.0639C73.5541 19.153 74.2813 18.4243 75.1904 18.4243C76.0995 18.4699 76.8268 19.1986 76.7813 20.1095C76.7359 20.9293 76.0541 21.658 75.1904 21.7036Z" fill="#575757"/>
<path d="M92.7359 26.5769H89.2814L88.2814 24.0264H82.5087L81.5541 26.5769H78.1905L83.3723 13.7332H87.0541L92.7359 26.5769ZM83.3723 21.7947H87.3269L85.2359 16.8302L83.3723 21.7947Z" fill="white"/>
<path d="M95.645 21.7036C94.7359 21.7036 94.0087 20.9748 94.0087 20.0639C94.0087 19.153 94.7359 18.4243 95.645 18.4243C96.5541 18.4699 97.2814 19.1986 97.2359 20.1095C97.1905 20.9293 96.5087 21.658 95.645 21.7036Z" fill="#575757"/>
<path d="M109.418 17.1946L109.19 17.1036C108.009 16.4204 106.645 16.056 105.281 15.9649C104.1 15.9649 103.372 16.3748 103.372 17.0125C103.372 17.559 104.009 18.0145 105.463 18.5155L106.463 18.8798C108.918 19.7452 110.009 20.9749 110.009 22.9333C110.009 25.2106 108.009 26.7591 105.009 26.7591C103.827 26.7591 102.69 26.4859 101.645 26.076C101.236 25.9393 100.872 25.7571 100.509 25.5294V22.7512C101.145 23.2066 101.872 23.571 102.554 23.8442C103.281 24.1631 104.1 24.3452 104.918 24.3452C106.19 24.3452 106.872 23.9353 106.872 23.1611C106.872 22.5234 106.418 22.1591 105.145 21.7036L104.463 21.4759C103.736 21.2482 103.009 20.9294 102.327 20.565C101.872 20.3373 101.463 20.0184 101.145 19.6085C100.6 18.9254 100.281 18.1055 100.281 17.1946C100.281 15.0085 102.19 13.551 105.145 13.551C106.645 13.551 108.145 13.9154 109.509 14.553L109.418 17.1946Z" fill="white"/>
<path d="M19.4893 0.630772L0.0119629 20.147L19.4894 39.6632L38.9667 20.147L19.4893 0.630772Z" fill="#F9FBFF"/>
<path d="M22.0441 20.1428C22.0441 22.8755 22.8623 25.5171 24.4532 27.7033L26.0441 26.4736C23.4078 22.6933 23.4078 17.6378 26.0441 13.812L24.4532 12.5823C22.9078 14.7684 22.0441 17.4101 22.0441 20.1428ZM25.4532 20.1428C25.4532 22.1012 26.0441 24.0141 27.1805 25.6538L28.7714 24.424C27.0896 21.8735 27.0896 18.5032 28.7714 15.9526L27.1805 14.7229C26.0441 16.2714 25.4532 18.1843 25.4532 20.1428ZM28.8623 20.1428C28.8623 21.3725 29.2259 22.5567 29.8623 23.5587L31.4532 22.329C30.6805 21.0081 30.6805 19.323 31.4532 18.0022L29.8623 16.7724C29.1805 17.7289 28.8623 18.9131 28.8623 20.1428Z" fill="#575757"/>
<path d="M17.0441 20.1428C17.0441 17.4101 16.2259 14.7684 14.635 12.5823L13.0441 13.812C15.6805 17.5923 15.6805 22.6478 13.0441 26.4736L14.635 27.7033C16.1805 25.5171 17.0441 22.8755 17.0441 20.1428ZM13.635 20.1428C13.635 18.1843 13.0441 16.2714 11.9077 14.6318L10.3168 15.9071C11.9986 18.4576 11.9986 21.828 10.3168 24.3785L11.9077 25.6082C13.0441 24.0141 13.635 22.1012 13.635 20.1428ZM10.2714 20.1428C10.2714 18.9131 9.90774 17.7289 9.27137 16.7269L7.63501 17.9566C8.40774 19.2774 8.40774 20.9626 7.63501 22.2834L9.22592 23.5131C9.90774 22.5567 10.2714 21.3725 10.2714 20.1428Z" fill="#575757"/>
</g>
<defs>
<clipPath id="clip0_2_1080">
<rect width="110" height="39.0323" fill="white" transform="translate(0 0.61792)"/>
</clipPath>
</defs>
</svg>
