<svg width="46" height="46" viewBox="0 0 46 46" fill="none" xmlns="http://www.w3.org/2000/svg">
<path d="M34.5001 9.58323H36.4168V11.4999C36.4168 12.0082 36.6187 12.4957 36.9781 12.8552C37.3376 13.2146 37.8251 13.4166 38.3334 13.4166C38.8418 13.4166 39.3293 13.2146 39.6887 12.8552C40.0482 12.4957 40.2501 12.0082 40.2501 11.4999V9.58323H42.1668C42.6751 9.58323 43.1626 9.3813 43.522 9.02186C43.8815 8.66241 44.0834 8.1749 44.0834 7.66657C44.0834 7.15824 43.8815 6.67072 43.522 6.31128C43.1626 5.95183 42.6751 5.7499 42.1668 5.7499H40.2501V3.83323C40.2501 3.3249 40.0482 2.83739 39.6887 2.47795C39.3293 2.1185 38.8418 1.91657 38.3334 1.91657C37.8251 1.91657 37.3376 2.1185 36.9781 2.47795C36.6187 2.83739 36.4168 3.3249 36.4168 3.83323V5.7499H34.5001C33.9918 5.7499 33.5042 5.95183 33.1448 6.31128C32.7854 6.67072 32.5834 7.15824 32.5834 7.66657C32.5834 8.1749 32.7854 8.66241 33.1448 9.02186C33.5042 9.3813 33.9918 9.58323 34.5001 9.58323ZM13.4168 13.4166V32.5832C13.4168 33.0916 13.6187 33.5791 13.9781 33.9385C14.3376 34.298 14.8251 34.4999 15.3334 34.4999C15.8418 34.4999 16.3293 34.298 16.6887 33.9385C17.0482 33.5791 17.2501 33.0916 17.2501 32.5832V13.4166C17.2501 12.9082 17.0482 12.4207 16.6887 12.0613C16.3293 11.7018 15.8418 11.4999 15.3334 11.4999C14.8251 11.4999 14.3376 11.7018 13.9781 12.0613C13.6187 12.4207 13.4168 12.9082 13.4168 13.4166ZM41.4001 17.2499C41.1534 17.3002 40.919 17.3986 40.7104 17.5395C40.5017 17.6804 40.3229 17.861 40.1841 18.071C40.0452 18.281 39.9491 18.5164 39.9013 18.7635C39.8534 19.0107 39.8547 19.2649 39.9051 19.5116C40.6534 23.146 40.2099 26.9248 38.6403 30.2871C37.0707 33.6495 34.4588 36.416 31.1922 38.1762C27.9256 39.9364 24.1785 40.5963 20.5071 40.058C16.8357 39.5197 13.4358 37.8119 10.8119 35.188C8.18812 32.5642 6.48031 29.1643 5.94201 25.4929C5.40371 21.8215 6.06363 18.0744 7.82379 14.8078C9.58396 11.5412 12.3505 8.92926 15.7129 7.35968C19.0752 5.7901 22.854 5.34656 26.4884 6.0949C26.9968 6.19657 27.5247 6.09214 27.956 5.80458C28.3873 5.51702 28.6868 5.0699 28.7884 4.56157C28.8901 4.05324 28.7857 3.52534 28.4981 3.094C28.2105 2.66267 27.7634 2.36323 27.2551 2.26157C25.8524 2.00023 24.4265 1.88462 23.0001 1.91657C18.8302 1.91657 14.754 3.15308 11.2868 5.46975C7.81968 7.78642 5.11738 11.0792 3.52163 14.9317C1.92588 18.7841 1.50836 23.0233 2.32187 27.1131C3.13537 31.2028 5.14337 34.9595 8.09192 37.9081C11.0405 40.8566 14.7972 42.8646 18.8869 43.6781C22.9767 44.4916 27.2159 44.0741 31.0683 42.4784C34.9208 40.8826 38.2136 38.1803 40.5302 34.7132C42.8469 31.246 44.0834 27.1698 44.0834 22.9999C44.0875 21.5836 43.9462 20.1707 43.6618 18.7832C43.6159 18.5331 43.5206 18.2946 43.3816 18.0816C43.2426 17.8687 43.0626 17.6855 42.8521 17.5428C42.6416 17.4001 42.4048 17.3007 42.1556 17.2504C41.9063 17.2001 41.6495 17.1999 41.4001 17.2499ZM21.0834 17.2499V19.1666C21.0919 20.585 21.6243 21.9503 22.5784 22.9999C21.6243 24.0495 21.0919 25.4148 21.0834 26.8332V28.7499C21.0834 30.2749 21.6892 31.7374 22.7676 32.8158C23.8459 33.8941 25.3084 34.4999 26.8334 34.4999H28.7501C30.2751 34.4999 31.7376 33.8941 32.816 32.8158C33.8943 31.7374 34.5001 30.2749 34.5001 28.7499V26.8332C34.4916 25.4148 33.9592 24.0495 33.0051 22.9999C33.9592 21.9503 34.4916 20.585 34.5001 19.1666V17.2499C34.5001 15.7249 33.8943 14.2624 32.816 13.184C31.7376 12.1057 30.2751 11.4999 28.7501 11.4999H26.8334C25.3084 11.4999 23.8459 12.1057 22.7676 13.184C21.6892 14.2624 21.0834 15.7249 21.0834 17.2499ZM30.6668 28.7499C30.6668 29.2582 30.4648 29.7457 30.1054 30.1052C29.7459 30.4646 29.2584 30.6666 28.7501 30.6666H26.8334C26.3251 30.6666 25.8376 30.4646 25.4781 30.1052C25.1187 29.7457 24.9168 29.2582 24.9168 28.7499V26.8332C24.9168 26.3249 25.1187 25.8374 25.4781 25.4779C25.8376 25.1185 26.3251 24.9166 26.8334 24.9166H28.7501C29.2584 24.9166 29.7459 25.1185 30.1054 25.4779C30.4648 25.8374 30.6668 26.3249 30.6668 26.8332V28.7499ZM30.6668 17.2499V19.1666C30.6668 19.6749 30.4648 20.1624 30.1054 20.5219C29.7459 20.8813 29.2584 21.0832 28.7501 21.0832H26.8334C26.3251 21.0832 25.8376 20.8813 25.4781 20.5219C25.1187 20.1624 24.9168 19.6749 24.9168 19.1666V17.2499C24.9168 16.7416 25.1187 16.2541 25.4781 15.8946C25.8376 15.5352 26.3251 15.3332 26.8334 15.3332H28.7501C29.2584 15.3332 29.7459 15.5352 30.1054 15.8946C30.4648 16.2541 30.6668 16.7416 30.6668 17.2499Z" fill="black"/>
</svg>
