<svg width="184" height="63" viewBox="0 0 184 63" fill="none" xmlns="http://www.w3.org/2000/svg">
<path d="M71.3504 24.958C71.4658 25.3906 71.3216 25.6501 70.9755 25.7655L67.6589 26.7459C67.2551 26.8613 67.0532 26.7459 66.909 26.3422C66.3899 24.6408 65.294 23.7469 63.2463 23.7469C60.1316 23.7469 59.0645 25.5924 59.0645 28.0724V33.7822C59.0645 36.2622 60.1027 38.1078 63.2463 38.1078C65.8131 38.1078 67.1686 36.9255 67.1686 34.3013V33.5515H63.7943C63.5059 33.5515 63.3328 33.4073 63.3328 33.0613V29.8892C63.304 29.6585 63.477 29.4278 63.7366 29.399C63.7654 29.399 63.7943 29.399 63.7943 29.399H71.2927C71.61 29.399 71.783 29.5431 71.783 29.8604V34.5897C71.783 39.0883 68.4664 42.4911 63.304 42.4911C57.1899 42.4911 54.3347 38.8576 54.3347 33.8976V27.8706C54.3347 22.9106 57.1899 19.2771 63.304 19.2771C68.2357 19.3059 70.4563 22.132 71.3504 24.958ZM88.1642 30.5813V41.6548C88.193 41.8855 87.9911 42.0873 87.7604 42.1162C87.7316 42.1162 87.7316 42.1162 87.7027 42.1162H84.3284C84.0977 42.145 83.867 41.972 83.8382 41.7125C83.8382 41.6836 83.8382 41.6548 83.8382 41.6548V39.838C82.8576 41.4818 81.0984 42.4911 79.1661 42.4622C75.9648 42.4622 73.9172 40.4148 73.9172 37.2427C73.9172 34.1571 75.8494 32.3404 80.5792 31.9943C81.5886 31.9078 82.6269 31.9078 83.6651 31.9655V30.7255C83.6651 29.0818 82.7999 28.4185 81.3291 28.4185C79.8294 28.4185 79.3968 29.0241 78.993 29.9757C78.8488 30.3506 78.7046 30.4083 78.3874 30.3218L75.0131 29.4566C74.667 29.3701 74.6382 29.1683 74.6958 28.9376C75.1573 26.5152 77.4645 24.7273 81.5021 24.7273C85.7705 24.7562 88.1642 26.8036 88.1642 30.5813ZM83.6651 36.4064V34.7915C82.7711 34.7627 81.8482 34.7915 80.9542 34.878C79.2237 35.0799 78.3297 35.6278 78.3297 36.9255C78.3297 38.1078 79.1372 38.7711 80.435 38.7711C81.9347 38.7711 83.1172 37.9636 83.6651 36.4064ZM100.335 24.7562C102.469 24.7562 103.882 26.025 104.545 27.8418C105.814 25.9962 107.343 24.7562 109.477 24.7562C112.448 24.7562 114.149 27.1208 114.149 30.639V41.6548C114.149 41.9431 113.89 42.1162 113.601 42.1162H110.083C109.765 42.1162 109.535 41.9431 109.535 41.6548V31.4464C109.535 29.918 108.871 28.9952 107.66 28.9952C106.391 28.9952 105.468 30.0334 105.036 31.6194V41.6548C105.065 41.8855 104.863 42.0873 104.632 42.1162H104.603H100.796C100.508 42.1162 100.392 41.9431 100.392 41.6548V31.4464C100.392 29.918 99.7002 28.9952 98.5178 28.9952C97.22 28.9952 96.2971 30.0911 95.8933 31.6771V41.6836C95.9222 41.9143 95.7491 42.1162 95.5184 42.145C95.4896 42.145 95.4607 42.145 95.4319 42.145H91.7115C91.4808 42.1738 91.2789 42.0008 91.2501 41.7701C91.2501 41.7413 91.2501 41.7125 91.2501 41.6836V25.5924C91.2501 25.3617 91.452 25.1599 91.6827 25.1599H91.7115H95.2877C95.5184 25.1311 95.7203 25.3041 95.7491 25.5636V25.5924V27.5245C96.7297 26.0827 98.2005 24.7562 100.335 24.7562ZM133.443 25.1311C133.53 25.5348 133.414 25.8231 133.039 25.9385L129.78 26.8901C129.377 27.0055 129.175 26.8613 129.031 26.4864C128.569 24.958 127.762 23.718 125.512 23.718C122.715 23.718 121.821 25.5636 121.821 28.0436V33.7534C121.821 36.2334 122.83 38.079 125.512 38.079C127.906 38.079 128.829 36.7236 129.204 35.0511C129.29 34.6762 129.55 34.5032 129.954 34.6473L133.212 35.6855C133.587 35.8008 133.703 36.0892 133.616 36.4929C132.838 39.8092 130.444 42.5199 125.483 42.5199C119.888 42.5199 117.091 38.8864 117.091 33.9264V27.8994C117.091 22.9394 119.975 19.3059 125.483 19.3059C130.328 19.3059 132.607 21.8725 133.443 25.1311ZM149.796 30.5813V41.6548C149.824 41.8855 149.622 42.0873 149.392 42.1162C149.363 42.1162 149.363 42.1162 149.334 42.1162H145.96C145.729 42.145 145.498 41.972 145.47 41.7125C145.47 41.6836 145.47 41.6548 145.47 41.6548V39.838C144.489 41.4818 142.73 42.4911 140.797 42.4622C137.596 42.4622 135.549 40.4148 135.549 37.2427C135.549 34.1571 137.481 32.3404 142.211 31.9943C143.22 31.9078 144.258 31.9078 145.296 31.9655V30.7255C145.296 29.0818 144.431 28.4185 142.96 28.4185C141.461 28.4185 141.028 29.0241 140.624 29.9757C140.48 30.3506 140.336 30.4083 140.019 30.3218L136.644 29.4566C136.298 29.3701 136.27 29.1683 136.327 28.9376C136.789 26.5152 139.096 24.7273 143.133 24.7273C147.402 24.7562 149.796 26.8036 149.796 30.5813ZM145.268 36.4064V34.7915C144.374 34.7627 143.451 34.7915 142.557 34.878C140.826 35.0799 139.932 35.6278 139.932 36.9255C139.932 38.1078 140.74 38.7711 142.038 38.7711C143.566 38.7711 144.72 37.9636 145.268 36.4064ZM162.918 25.4483V28.7357C162.918 29.1394 162.774 29.2836 162.37 29.2836H161.88C159.428 29.2836 157.986 30.3794 157.496 32.225V41.6836C157.525 41.9143 157.352 42.1162 157.121 42.145H157.092H153.228C152.997 42.145 152.824 41.9432 152.824 41.7125C152.824 41.7125 152.824 41.7125 152.824 41.6836V25.5636C152.824 25.3329 152.997 25.1311 153.199 25.1311C153.228 25.1311 153.256 25.1311 153.256 25.1311H156.746C157.121 25.1311 157.207 25.3618 157.207 25.6213V27.8994C158.015 26.3999 159.515 24.9292 162.139 24.9292C162.802 24.9292 162.918 25.0157 162.918 25.4483ZM168.945 35.0511V35.6855C168.945 37.4734 169.868 38.7134 172.031 38.7134C174.137 38.7134 174.742 37.9059 175.29 36.8966C175.579 36.4352 175.694 36.3776 176.184 36.5794L178.607 37.8194C179.097 38.079 179.126 38.3097 178.924 38.7711C177.886 41.1357 175.261 42.4911 172.031 42.4911C167.128 42.4911 164.533 39.5785 164.533 35.599V31.6771C164.533 27.8129 166.955 24.785 171.974 24.785C176.761 24.785 179.097 27.8129 179.097 31.5906V34.3013C179.097 34.7627 178.953 35.0799 178.29 35.0799L168.945 35.0511ZM168.945 31.4464V32.0231H174.858V31.4464C174.858 29.8027 173.935 28.505 171.916 28.505C169.897 28.505 168.945 29.8027 168.945 31.4464Z" fill="black"/>
<path d="M27.2539 5.95435H6.66207C6.31599 5.95435 6.02759 6.24272 6.02759 6.58876V36.5218C6.02759 47.1916 14.6796 55.8716 25.3793 55.8716H27.2539C37.9248 55.8716 46.5768 47.2204 46.5768 36.5218V25.3041C46.6056 14.6055 37.9536 5.95435 27.2539 5.95435ZM40.405 36.839C40.405 44.106 35.0408 49.6139 26.7348 49.6139C16.8715 49.6139 12.2571 43.7599 12.2571 35.7432V26.025C12.2571 18.0083 16.8715 12.1543 26.7348 12.1543C34.7235 12.1543 38.3285 16.7106 39.7705 21.2669C39.9724 21.959 39.7129 22.3627 39.1649 22.5646L33.8006 24.1506C33.1661 24.3525 32.8201 24.1506 32.6182 23.5162C31.7818 20.7767 29.9937 19.306 26.7348 19.306C21.6878 19.306 19.9862 22.2762 19.9862 26.2846V35.5125C19.9862 39.5209 21.6589 42.4911 26.7348 42.4911C30.8878 42.4911 33.0796 40.559 33.0796 36.3488V35.1664H27.5423C27.1097 35.1664 26.7925 34.9069 26.7925 34.3878V29.2837C26.7925 28.7934 27.0809 28.4762 27.5423 28.4762H39.6263C40.1166 28.4762 40.405 28.7357 40.405 29.226V36.839Z" fill="black"/>
</svg>
