<svg width="125" height="47" viewBox="0 0 125 47" fill="none" xmlns="http://www.w3.org/2000/svg">
<path d="M15.5781 20.1628C15.5573 20.8038 15.4324 22.582 13.912 23.8433C12.2667 25.2081 9.47601 25.5182 7.45585 25.5182C6.68527 25.5182 5.89387 25.4975 5.12329 25.4148C3.54049 25.2287 1.72859 24.8359 0.74975 23.3678C0.145784 22.4373 0.0833062 21.4655 0.0624798 20.3489H5.24825C5.24825 20.5143 5.18577 21.2587 5.68561 21.6929C5.95635 21.941 6.60197 22.1892 7.47667 22.1892C7.62246 22.1892 8.76791 22.1685 9.43436 21.6722C10.2049 21.0933 10.1216 19.9767 10.1216 19.7699C10.1216 19.1703 10.1425 18.5913 10.1425 18.0123C9.89254 18.4052 9.87171 18.4465 9.64262 18.612C8.78874 19.2943 7.47667 19.4597 6.43535 19.4597C4.91503 19.4597 3.62379 19.1703 2.39503 18.2398C1.35372 17.4334 0 15.7585 0 12.5949C0 11.9125 0.0624798 9.18308 1.83272 7.32212C3.08231 5.99877 4.99833 5.50251 6.76858 5.52319C7.1851 5.52319 8.78874 5.52319 9.97584 6.45367C10.2258 6.63977 10.3715 6.78451 10.7256 7.26009L10.7048 5.91606H15.6406L15.6198 19.3564C15.6198 19.6458 15.6198 19.894 15.5781 20.1628ZM8.87204 9.67934C8.70543 9.59663 8.35138 9.43121 7.85155 9.45189C7.4975 9.45189 7.12263 9.5346 6.83106 9.67934C6.01883 10.0722 5.47734 10.9613 5.47734 12.7603C5.47734 13.9596 5.74808 14.7039 6.10213 15.0968C6.28957 15.3243 6.51866 15.4483 6.7894 15.5724C6.89354 15.6344 7.28924 15.7378 7.70576 15.7378C7.93485 15.7378 8.30973 15.7378 8.78874 15.5104C9.93419 15.0141 10.0591 13.608 10.0591 12.5328C10.0591 11.5196 9.95501 10.217 8.87204 9.67934ZM26.5745 20.1834V19.0875C26.3454 19.253 26.0746 19.4804 25.5123 19.7492C24.9084 20.0594 23.5963 20.5143 21.8052 20.5143C21.4512 20.5143 20.4723 20.5143 19.5143 20.1628C17.6608 19.4391 16.6611 17.8469 16.6611 15.9239C16.6611 15.1588 16.8277 13.4426 18.6396 12.2433C19.8267 11.4576 21.347 11.2508 22.7424 11.0647C23.5546 10.9613 24.4085 10.8373 25.1999 10.6925C25.554 10.6098 25.9497 10.5271 26.3037 10.4237C26.3037 10.3617 26.3037 9.9895 26.2204 9.76205C26.0538 9.18308 25.6373 8.76954 24.3669 8.76954C23.9503 8.76954 23.6796 8.83157 23.5338 8.85225C22.6383 9.0797 22.555 9.8034 22.4717 10.1136L17.1193 10.2376C17.1818 9.92747 17.2651 9.65866 17.3067 9.38986C17.4525 8.83157 17.7441 7.85973 18.8895 6.9706C20.035 6.10215 21.7636 5.48183 24.8667 5.50251C27.116 5.50251 30.1566 5.8747 31.2604 8.16989C31.5728 8.81089 31.6769 9.36918 31.6769 10.6925L31.6561 18.4466C31.6561 19.4804 31.8019 19.7079 32.1559 20.2041L26.5745 20.1834ZM24.117 14.2284C23.513 14.3731 22.6383 14.5592 22.2009 15.0968C22.1385 15.1795 21.951 15.4277 21.951 15.7585C21.951 16.1927 22.3051 16.8544 23.3672 16.8544C23.867 16.8544 24.3044 16.689 24.7626 16.4615C26.3662 15.6137 26.2829 14.2077 26.2829 13.546C25.554 13.8148 24.8459 14.0216 24.117 14.2284ZM58.6055 20.2455L58.6263 11.2508C58.6263 10.3617 58.6263 9.59663 58.3555 8.76954C57.6683 6.68112 55.8772 6.08148 55.1483 5.8747C54.2944 5.62657 53.628 5.64725 53.2739 5.64725C50.9414 5.6059 49.7542 6.5157 49.0878 7.19806C48.9004 7.38415 48.588 7.69431 48.3381 8.27328C48.0257 7.71499 47.8382 7.38415 47.63 7.17738C46.2554 5.62657 43.8604 5.62657 43.3605 5.62657C41.4029 5.62657 40.1949 6.37096 39.6118 6.90857C39.3827 7.13602 39.1744 7.40483 38.8412 7.98379V5.95741H33.3222L33.3014 20.2041H39.0287L39.0495 12.4708C39.0495 12.0366 39.1328 11.7471 39.1953 11.5817C39.591 10.403 40.7781 10.2583 41.1738 10.2583C41.6111 10.2583 42.7566 10.403 43.0898 11.6023C43.1731 11.9332 43.1731 12.1606 43.1731 12.4915L43.1315 20.2041H48.8379L48.8587 12.6155C48.8587 12.264 48.8587 11.9745 48.942 11.6437C49.2961 10.3824 50.504 10.279 50.9414 10.279C53.1073 10.279 52.9407 12.202 52.9407 12.7603L52.9199 20.2041L58.6055 20.2455ZM72.6841 19.7699C71.7053 20.3489 70.5806 20.6177 69.4352 20.6177C67.9773 20.6177 66.936 20.1421 66.4362 19.8113C66.1863 19.6252 66.0197 19.4184 65.8322 19.2116V20.2662H60.3132L60.3341 0.850098H66.0197L66.0405 7.01196C66.2904 6.76383 66.4778 6.59841 66.7902 6.37096C67.6233 5.81267 68.6438 5.6059 69.6643 5.6059C71.4345 5.6059 72.934 6.22622 74.1211 7.50822C74.975 8.4387 75.9122 9.9895 75.9122 12.843C75.933 13.6494 75.8705 17.8469 72.6841 19.7699ZM69.7059 10.4651C69.2061 9.74137 68.4355 9.63798 68.1231 9.63798C67.894 9.63798 67.3734 9.70002 66.9152 10.0515C65.9988 10.7959 65.8947 12.0366 65.8947 13.1118C65.8947 14.1043 65.9988 15.4277 66.8319 16.0893C66.9985 16.2341 67.4567 16.5236 68.1023 16.5236C68.3522 16.5236 69.0187 16.4408 69.5393 15.9239C70.0183 15.4276 70.3099 14.5592 70.3099 13.1118C70.3099 12.2227 70.2266 11.2095 69.7059 10.4651ZM82.6391 20.2662L82.6808 0.850098H76.9535L76.9327 20.2662H82.6391ZM84.3677 4.63406V0.870776H90.0741V4.63406H84.3677ZM84.326 20.2868L84.3469 6.04012H90.0533L90.0325 20.2868H84.326ZM107.089 20.3075L107.11 11.3129C107.11 10.2997 107.027 9.8034 106.923 9.32782C106.694 8.39734 106.235 7.46686 105.486 6.84654C104.132 5.6886 102.362 5.66793 101.841 5.66793C100.383 5.66793 98.842 6.04012 97.8007 7.09467C97.53 7.36347 97.4675 7.42551 97.1135 7.94244V6.04012H91.7402L91.7194 20.2868H97.405L97.4258 12.6982C97.4258 12.0986 97.405 10.3617 99.5085 10.3617C100.8 10.3617 101.216 11.044 101.362 11.5403C101.445 11.8711 101.445 12.1813 101.445 12.5121L101.425 20.2868L107.089 20.3075ZM123.813 20.3282C123.792 20.9692 123.667 22.7474 122.147 24.0088C120.522 25.3735 117.711 25.6836 115.691 25.6836C114.92 25.6836 114.129 25.663 113.358 25.5802C111.775 25.3941 109.943 25.0013 108.984 23.5332C108.381 22.6027 108.318 21.6309 108.297 20.5143H113.483C113.483 20.6797 113.421 21.4241 113.92 21.8583C114.191 22.1064 114.837 22.3546 115.711 22.3546C115.857 22.3546 117.003 22.3339 117.669 21.8376C118.44 21.2587 118.356 20.1421 118.356 19.9353C118.356 19.3357 118.377 18.7567 118.377 18.1777C118.127 18.5706 118.106 18.612 117.877 18.7774C117.023 19.4597 115.711 19.6252 114.67 19.6252C113.15 19.6252 111.838 19.3564 110.63 18.4052C109.588 17.5988 108.235 15.9239 108.235 12.7603C108.235 12.0779 108.297 9.3485 110.067 7.48754C111.317 6.16419 113.233 5.66793 115.003 5.68861C115.42 5.68861 117.023 5.68861 118.211 6.61909C118.461 6.80518 118.606 6.94993 118.96 7.42551L118.94 6.08148H123.875L123.855 19.5218C123.855 19.8113 123.855 20.0594 123.813 20.3282ZM117.107 9.84476C116.94 9.76205 116.586 9.59663 116.086 9.61731C115.732 9.61731 115.357 9.70002 115.066 9.84476C114.254 10.2376 113.712 11.1268 113.712 12.9257C113.712 14.125 113.983 14.8694 114.337 15.2622C114.524 15.4897 114.753 15.6137 115.024 15.7378C115.128 15.7998 115.524 15.9032 115.941 15.9032C116.17 15.9032 116.544 15.9032 117.023 15.6758C118.169 15.1795 118.294 13.7735 118.294 12.6982C118.294 11.7057 118.19 10.3824 117.107 9.84476ZM29.0945 41.7706C30.6356 41.7706 32.2184 41.5225 32.6974 41.4812V37.6145C32.1351 37.7179 32.0102 37.7179 31.6769 37.7179C30.1774 37.7179 30.0941 36.8081 30.0941 36.2291L30.1983 30.7496H32.6974V27.6687H30.2607L30.3024 23.1817H24.5751L24.4918 27.648H22.4925V30.7289H24.4502L24.3461 37.6352C24.3461 38.1314 24.3669 38.6484 24.5127 39.1653C24.95 40.6127 26.0746 41.75 29.0945 41.7706ZM55.6481 35.5054C55.6481 35.5054 55.6481 36.1671 55.7731 36.6013C55.9605 37.1596 56.5228 38.1934 58.0432 38.1728C58.9179 38.1728 59.3969 37.8626 59.6676 37.6352C60.2507 37.1596 60.5215 36.5393 60.6465 36.3532L65.3116 38.3175C65.1658 38.545 64.9992 38.8344 64.6243 39.2687C63.6246 40.4266 62.4792 41.0469 62.0002 41.2951C61.3129 41.6259 59.8134 42.2049 57.7724 42.2049C56.5853 42.2049 55.4399 42.0394 54.3777 41.6052C51.4204 40.3853 49.8376 37.5318 49.8584 34.4302C49.8584 31.494 51.2329 29.6744 52.0451 28.8886C54.107 26.945 56.9394 26.8002 57.7516 26.8002C58.7304 26.8002 61.6461 26.945 63.7288 29.1781C64.416 29.9225 64.9367 30.853 65.2491 31.8248C65.624 33.0655 65.6656 34.2647 65.6656 35.5674L55.6481 35.5054ZM59.7301 31.7214C59.3552 30.5428 58.2931 30.3774 57.8557 30.3774C57.4184 30.3981 57.1268 30.5221 56.9602 30.6048C55.898 31.0597 55.7731 32.2177 55.7106 32.5278H59.855C59.8342 32.3624 59.8342 32.0729 59.7301 31.7214ZM75.9538 31.8248C76.2246 31.8248 76.5162 31.8455 76.7869 31.8868V27.1104C75.2874 27.1104 74.0795 27.1517 72.8091 28.0409C72.4967 28.2269 72.3092 28.3924 72.0385 28.6405V27.3999H66.5611L66.5403 41.6466H72.2051L72.2259 34.9471C72.2259 34.4508 72.2259 34.058 72.3925 33.6031C73.0798 31.6594 75.5165 31.8041 75.9538 31.8248ZM86.6794 41.6672V40.5713C86.4503 40.7368 86.1796 40.9642 85.6173 41.233C85.0133 41.5432 83.7013 41.9981 81.9102 41.9981C81.5561 41.9981 80.5773 41.9981 79.6193 41.6466C77.7657 40.9229 76.7661 39.3307 76.7661 37.4077C76.7661 36.6426 76.9327 34.9264 78.7446 33.7271C79.9317 32.9207 81.452 32.7346 82.8474 32.5485C83.6388 32.4451 84.5135 32.3211 85.3049 32.1763C85.6589 32.0936 86.0546 32.0109 86.4087 31.9075C86.4087 31.8455 86.4087 31.4733 86.3254 31.2458C86.1588 30.6669 85.7422 30.2533 84.4718 30.2533C84.0553 30.2533 83.7846 30.3154 83.6388 30.336C82.7432 30.5635 82.6599 31.2872 82.5766 31.5974L77.2243 31.7214C77.2867 31.4113 77.37 31.1425 77.4117 30.8737C77.5575 30.3154 77.849 29.3435 78.9945 28.4544C80.1399 27.586 81.8685 26.9656 84.9717 26.9863C87.2209 26.9863 90.2616 27.3585 91.3654 29.6537C91.6778 30.2947 91.7819 30.8737 91.7819 32.1763L91.7611 39.9303C91.7611 40.9849 91.9069 41.1917 92.2609 41.6879L86.6794 41.6672ZM84.2219 35.6915C83.618 35.8362 82.7641 36.0223 82.3059 36.5599C82.2434 36.6426 82.056 36.8908 82.056 37.2216C82.056 37.6558 82.41 38.3175 83.4722 38.3175C83.972 38.3175 84.4094 38.1521 84.8675 37.9246C86.4712 37.0769 86.3879 35.6708 86.3879 35.0091C85.6589 35.2779 84.9508 35.5054 84.2219 35.6915ZM102.737 42.0394C102.32 42.0394 100.821 42.0394 99.6335 41.233C99.446 41.0883 99.3211 40.9849 99.0295 40.7161V46.8366H93.4272L93.448 27.4205H99.0087V28.5164C99.2794 28.1856 99.4044 28.0822 99.571 27.9581C100.092 27.5446 101.175 27.0277 102.82 27.0277C107.298 27.0277 109.068 30.6669 109.068 34.6163C109.068 38.6484 107.193 42.0601 102.737 42.0394ZM102.841 31.9489C102.341 31.2872 101.591 31.1838 101.32 31.1838C101.091 31.1838 100.654 31.2045 100.217 31.4526C99.0503 32.0729 98.9878 33.5204 98.9878 34.6369C98.9878 35.7328 99.0711 37.2009 100.175 37.8006C100.612 38.0487 100.987 38.0487 101.175 38.0487C101.425 38.0487 101.82 38.028 102.278 37.7592C103.299 37.1182 103.445 35.7535 103.445 34.7197C103.445 33.8305 103.382 32.6933 102.841 31.9489ZM125 27.4826H119.085C119.064 27.648 116.919 36.7667 116.919 36.7667L114.878 27.4826H108.922L113.441 40.5713C113.67 41.2123 113.879 41.812 113.879 42.0188C113.879 42.5357 113.483 42.7011 112.692 42.7011C112.129 42.7011 111.609 42.6391 111.067 42.6184V46.6505L112.65 46.8159C113.129 46.8779 113.629 46.8366 114.087 46.8366C115.503 46.8366 116.607 46.8573 117.752 45.9681C118.835 45.079 119.335 43.797 119.773 42.5357L125 27.4826ZM48.7129 30.4601C48.4838 29.2608 47.9215 28.5371 47.5466 28.1856C46.5262 27.1724 44.9433 26.7589 43.5688 26.7589C41.4862 26.7589 40.1949 27.5446 39.6326 28.0822C39.4452 28.2683 39.2994 28.413 38.987 28.8059L39.0078 22.2098H33.3222L33.3014 41.6259H38.9662L38.987 31.4733H44.0478L44.027 41.6259H48.8379L48.8587 32.3418C48.8795 31.618 48.8587 31.1631 48.7129 30.4601Z" fill="black"/>
</svg>
