<svg width="32" height="45" viewBox="0 0 32 45" fill="none" xmlns="http://www.w3.org/2000/svg">
<path d="M7.54846 36.7673C8.19712 37.1901 9.02537 37.317 9.80291 37.0485L15.1612 35.2218C15.705 35.0362 16.295 35.0362 16.8388 35.2218L22.1971 37.0485C22.9746 37.3148 23.8029 37.1901 24.4515 36.7673V45L16 42.1289L7.54846 45V36.7673ZM15.3175 31.7566L10.9608 33.2429C10.473 33.4091 9.9414 33.3912 9.46589 33.1926C8.99039 32.994 8.6038 32.6285 8.37883 32.1646L6.25538 27.7988C6.06029 27.3954 5.74213 27.0644 5.34684 26.8537L1.12107 24.6127C0.686189 24.3812 0.345772 24.0051 0.158659 23.5491C-0.0284532 23.0932 -0.0505031 22.5862 0.0963211 22.1158L1.59647 17.3102C1.72446 16.8999 1.72446 16.4604 1.59647 16.0501L0.0963211 11.2445C-0.0508849 10.7735 -0.0288048 10.2658 0.158736 9.80943C0.346277 9.35302 0.687463 8.97664 1.12318 8.74549L5.34684 6.50442C5.7418 6.29427 6.05992 5.96411 6.25538 5.56148L8.37883 1.18929C8.60416 0.725841 8.99091 0.360708 9.46637 0.162538C9.94184 -0.0356333 10.4733 -0.0531933 10.9608 0.113159L15.3175 1.59945C15.76 1.75055 16.24 1.75055 16.6825 1.59945L21.0392 0.113159C21.527 -0.0530387 22.0586 -0.0351694 22.5341 0.163405C23.0096 0.36198 23.3962 0.727572 23.6212 1.19141L25.7446 5.55937C25.9397 5.96278 26.2579 6.29372 26.6532 6.50442L30.8789 8.74549C31.3138 8.97691 31.6542 9.35308 31.8413 9.809C32.0285 10.2649 32.0505 10.7719 31.9037 11.2424L30.4035 16.048C30.2755 16.4582 30.2755 16.8978 30.4035 17.308L31.9037 22.1137C32.0509 22.5846 32.0288 23.0923 31.8413 23.5487C31.6537 24.0051 31.3125 24.3815 30.8768 24.6127L26.6532 26.8537C26.2582 27.0639 25.9401 27.394 25.7446 27.7967L23.6212 32.1667C23.3958 32.6302 23.0091 32.9953 22.5336 33.1935C22.0582 33.3917 21.5267 33.4092 21.0392 33.2429L16.6825 31.7566C16.24 31.6055 15.76 31.6055 15.3175 31.7566ZM16 10.3354C15.4396 10.3354 14.9022 10.5581 14.506 10.9546C14.1097 11.3511 13.8871 11.8889 13.8871 12.4496V20.9064C13.8871 21.4672 14.1097 22.0049 14.506 22.4014C14.9022 22.7979 15.4396 23.0206 16 23.0206C16.5604 23.0206 17.0978 22.7979 17.494 22.4014C17.8903 22.0049 18.1129 21.4672 18.1129 20.9064V12.4496C18.1129 11.8889 17.8903 11.3511 17.494 10.9546C17.0978 10.5581 16.5604 10.3354 16 10.3354Z" fill="#DA812F"/>
<path d="M16 10.3354C15.4396 10.3354 14.9022 10.5581 14.506 10.9546C14.1097 11.3511 13.8871 11.8889 13.8871 12.4496V20.9064C13.8871 21.4672 14.1097 22.0049 14.506 22.4014C14.9022 22.7979 15.4396 23.0206 16 23.0206C16.5604 23.0206 17.0978 22.7979 17.494 22.4014C17.8903 22.0049 18.1129 21.4672 18.1129 20.9064V12.4496C18.1129 11.8889 17.8903 11.3511 17.494 10.9546C17.0978 10.5581 16.5604 10.3354 16 10.3354Z" fill="#DA812F"/>
</svg>
