<svg width="110" height="41" fill="none" xmlns="http://www.w3.org/2000/svg"><path d="M13.709 16.906c-.019.561-.128 2.118-1.466 3.222-1.448 1.195-3.904 1.466-5.682 1.466-.678 0-1.374-.018-2.053-.09-1.392-.163-2.987-.507-3.848-1.792-.532-.815-.587-1.666-.605-2.643h4.563c0 .145-.055.796.385 1.177.239.217.807.434 1.576.434.129 0 1.137-.018 1.723-.453.678-.506.605-1.484.605-1.665 0-.525.018-1.032.018-1.538-.22.344-.238.38-.44.525-.75.597-1.906.742-2.822.742-1.338 0-2.474-.254-3.555-1.068C1.19 14.517 0 13.05 0 10.28c0-.597.055-2.986 1.613-4.615 1.1-1.159 2.786-1.593 4.343-1.575.367 0 1.778 0 2.823.814.22.163.348.29.66.706L9.42 4.435h4.344L13.745 16.2c0 .254 0 .47-.036.706ZM7.807 7.73a1.8 1.8 0 0 0-.898-.2c-.311 0-.641.073-.898.2-.714.344-1.19 1.122-1.19 2.697 0 1.05.237 1.701.549 2.045.165.2.366.308.605.417.091.054.44.145.806.145.202 0 .532 0 .953-.2 1.008-.434 1.118-1.665 1.118-2.606 0-.887-.092-2.027-1.045-2.498Zm15.578 9.195v-.96c-.201.146-.44.345-.934.58-.532.272-1.686.67-3.262.67-.312 0-1.173 0-2.016-.308-1.631-.633-2.511-2.027-2.511-3.71 0-.67.146-2.173 1.74-3.222 1.046-.688 2.383-.87 3.611-1.032.715-.09 1.466-.2 2.163-.326.312-.072.66-.145.971-.235 0-.055 0-.38-.073-.58-.147-.506-.513-.868-1.631-.868-.367 0-.605.054-.733.072-.788.2-.862.833-.935 1.104l-4.71.109c.055-.272.128-.507.165-.742.128-.49.385-1.34 1.393-2.118 1.008-.76 2.529-1.303 5.26-1.285 1.979 0 4.655.325 5.626 2.335.275.56.367 1.05.367 2.208l-.019 6.788c0 .905.129 1.104.44 1.538l-4.912-.018Zm-2.162-5.213c-.532.127-1.301.29-1.686.76-.055.073-.22.29-.22.58 0 .38.311.959 1.246.959.44 0 .825-.145 1.228-.344 1.411-.742 1.338-1.973 1.338-2.552-.642.235-1.265.416-1.906.597Zm30.35 5.268.018-7.874c0-.779 0-1.448-.238-2.172-.605-1.829-2.181-2.354-2.822-2.535-.752-.217-1.338-.199-1.65-.199-2.053-.036-3.097.76-3.684 1.358a2.8 2.8 0 0 0-.66.941c-.274-.489-.44-.778-.623-.96-1.21-1.357-3.317-1.357-3.757-1.357-1.722 0-2.785.652-3.299 1.123-.201.199-.384.434-.678.94V4.472h-4.856l-.019 12.471h5.04l.019-6.77c0-.38.073-.633.128-.778.348-1.031 1.393-1.158 1.74-1.158.386 0 1.394.127 1.687 1.176.073.29.073.49.073.779l-.036 6.751h5.021l.019-6.643c0-.307 0-.56.073-.85.311-1.105 1.374-1.195 1.76-1.195 1.905 0 1.759 1.683 1.759 2.172l-.019 6.516 5.004.037Zm12.389-.417c-.861.507-1.851.742-2.859.742-1.283 0-2.2-.416-2.64-.706-.22-.162-.366-.343-.53-.524v.923h-4.857L53.094 0h5.003l.019 5.394c.22-.217.385-.362.66-.561.732-.489 1.63-.67 2.529-.67 1.557 0 2.877.543 3.922 1.665.751.815 1.576 2.173 1.576 4.67.018.706-.037 4.38-2.841 6.064Zm-2.62-8.145c-.44-.634-1.119-.724-1.394-.724-.201 0-.66.054-1.063.362-.806.651-.898 1.738-.898 2.679 0 .869.092 2.027.825 2.606.147.127.55.38 1.118.38.22 0 .806-.072 1.265-.525.421-.434.678-1.194.678-2.461 0-.779-.074-1.666-.532-2.317Zm11.38 8.58L72.76 0h-5.04l-.018 16.997h5.021Zm1.522-13.685V.018h5.021v3.294h-5.021Zm-.037 13.703.018-12.472h5.022l-.018 12.472h-5.022Zm20.032.018.018-7.874c0-.887-.073-1.321-.165-1.738-.202-.814-.605-1.629-1.265-2.172-1.19-1.013-2.749-1.032-3.207-1.032-1.283 0-2.639.326-3.555 1.25-.239.235-.294.289-.605.742V4.543H80.73l-.018 12.472h5.003l.019-6.643c0-.525-.019-2.046 1.832-2.046 1.137 0 1.503.598 1.632 1.032.073.29.073.561.073.85l-.018 6.807 4.985.018Zm14.716.018c-.018.561-.128 2.118-1.466 3.222-1.429 1.195-3.904 1.466-5.681 1.466-.678 0-1.375-.018-2.053-.09-1.393-.163-3.006-.507-3.849-1.793-.531-.814-.586-1.665-.604-2.642h4.563c0 .145-.055.796.385 1.176.238.218.806.435 1.576.435.128 0 1.136-.018 1.723-.453.678-.507.605-1.484.605-1.665 0-.525.018-1.032.018-1.539-.22.344-.238.38-.44.525-.751.598-1.906.743-2.822.743-1.338 0-2.493-.236-3.556-1.069-.916-.705-2.107-2.172-2.107-4.941 0-.597.055-2.987 1.612-4.616 1.1-1.158 2.786-1.593 4.344-1.574.366 0 1.778 0 2.822.814.22.163.349.29.66.706l-.018-1.177h4.343l-.018 11.766c0 .253 0 .47-.037.706Zm-5.901-9.177a1.802 1.802 0 0 0-.898-.2 2.1 2.1 0 0 0-.898.2c-.715.344-1.191 1.122-1.191 2.697 0 1.05.238 1.701.549 2.045.165.2.367.308.605.417.092.054.44.144.807.144.201 0 .531 0 .953-.199 1.008-.434 1.118-1.665 1.118-2.606 0-.87-.092-2.028-1.045-2.498ZM25.604 35.82c1.355 0 2.748-.217 3.17-.253v-3.385c-.495.09-.605.09-.898.09-1.32 0-1.393-.796-1.393-1.303l.091-4.796h2.2v-2.697h-2.145l.037-3.928h-5.04l-.073 3.91h-1.76v2.697h1.723l-.091 6.045c0 .435.018.887.146 1.34.385 1.267 1.375 2.262 4.032 2.28Zm23.366-5.484s0 .58.11.96c.165.488.66 1.393 1.998 1.375.77 0 1.191-.272 1.43-.47.513-.417.75-.96.86-1.123l4.106 1.72c-.128.199-.275.452-.605.832-.88 1.014-1.887 1.557-2.309 1.774-.605.29-1.924.797-3.72.797-1.045 0-2.053-.145-2.988-.525-2.602-1.068-3.995-3.566-3.977-6.281 0-2.57 1.21-4.164 1.925-4.851 1.814-1.702 4.307-1.829 5.021-1.829.862 0 3.428.127 5.26 2.082a6.266 6.266 0 0 1 1.338 2.317c.33 1.086.367 2.136.367 3.276l-8.816-.054Zm3.593-3.313c-.33-1.031-1.265-1.176-1.65-1.176a1.926 1.926 0 0 0-.788.199c-.935.398-1.045 1.412-1.1 1.683h3.647c-.018-.145-.018-.398-.11-.706Zm14.276.09c.239 0 .495.019.734.055v-4.181c-1.32 0-2.383.036-3.501.814a3.76 3.76 0 0 0-.678.525v-1.086h-4.82l-.018 12.472h4.985l.018-5.865c0-.434 0-.778.146-1.176.605-1.702 2.75-1.575 3.134-1.557Zm9.439 8.617v-.96c-.202.145-.44.344-.935.58-.531.271-1.686.67-3.262.67-.312 0-1.173 0-2.016-.308-1.631-.634-2.51-2.028-2.51-3.71 0-.67.146-2.173 1.74-3.223 1.045-.706 2.383-.869 3.61-1.032.697-.09 1.467-.199 2.163-.325.312-.073.66-.145.972-.236 0-.054 0-.38-.074-.579-.146-.507-.513-.869-1.63-.869-.367 0-.606.055-.734.073-.788.199-.861.832-.935 1.104l-4.71.108c.055-.271.129-.506.165-.742.129-.488.385-1.34 1.393-2.117 1.008-.76 2.53-1.304 5.26-1.286 1.98 0 4.655.326 5.626 2.335.275.562.367 1.068.367 2.209l-.018 6.787c0 .923.128 1.105.44 1.539l-4.912-.018ZM74.115 30.5c-.531.126-1.283.29-1.686.76-.055.072-.22.29-.22.58 0 .38.312.958 1.246.958.44 0 .825-.144 1.228-.343 1.412-.742 1.338-1.973 1.338-2.553a19.26 19.26 0 0 1-1.906.598Zm16.293 5.557c-.366 0-1.686 0-2.73-.706a6.816 6.816 0 0 1-.532-.453v5.358h-4.93l.018-16.997h4.894v.96c.238-.29.348-.38.495-.489.458-.362 1.41-.814 2.858-.814 3.94 0 5.499 3.185 5.499 6.642 0 3.53-1.65 6.517-5.572 6.499Zm.092-8.834c-.44-.579-1.1-.67-1.338-.67-.202 0-.587.019-.971.236-1.027.543-1.082 1.81-1.082 2.788 0 .959.074 2.244 1.045 2.769.385.217.715.217.88.217.22 0 .568-.018.971-.253.898-.561 1.026-1.756 1.026-2.661 0-.778-.055-1.774-.531-2.425Zm19.5-3.91h-5.205c-.018.146-1.906 8.128-1.906 8.128l-1.796-8.127h-5.242l3.977 11.458c.202.56.385 1.086.385 1.267 0 .452-.348.597-1.044.597-.495 0-.953-.054-1.43-.073v3.53l1.393.145c.421.054.861.018 1.265.018 1.246 0 2.217.018 3.225-.76.953-.779 1.393-1.9 1.778-3.005l4.6-13.177ZM42.867 25.92c-.201-1.05-.696-1.683-1.026-1.99-.898-.888-2.29-1.25-3.5-1.25-1.833 0-2.97.688-3.464 1.159-.165.163-.294.29-.568.633l.018-5.774h-5.003l-.019 16.997h4.985l.019-8.888h4.453l-.018 8.888h4.233l.019-8.128c.018-.633 0-1.031-.129-1.647Z" fill="#fff"/></svg>