<svg width="110" height="38" fill="none" xmlns="http://www.w3.org/2000/svg"><path d="M42.655 14.99c.07.26-.017.417-.224.486l-1.983.59c-.241.069-.362 0-.448-.243-.31-1.023-.965-1.56-2.19-1.56-1.862 0-2.5 1.11-2.5 2.6v3.433c0 1.49.621 2.6 2.5 2.6 1.535 0 2.345-.71 2.345-2.288v-.451h-2.017c-.172 0-.276-.087-.276-.295v-1.907a.27.27 0 0 1 .241-.295h4.518c.19 0 .293.087.293.278v2.843c0 2.704-1.983 4.75-5.07 4.75-3.654 0-5.361-2.184-5.361-5.166v-3.623c0-2.982 1.707-5.167 5.362-5.167 2.948.018 4.276 1.717 4.81 3.416Zm10.052 3.381v6.657c.017.139-.104.26-.242.278H50.414a.269.269 0 0 1-.293-.243v-1.127a3.186 3.186 0 0 1-2.793 1.578c-1.914 0-3.138-1.231-3.138-3.138 0-1.855 1.155-2.947 3.982-3.155a13.094 13.094 0 0 1 1.845-.018v-.745c0-.988-.517-1.387-1.396-1.387-.897 0-1.156.364-1.397.936-.086.226-.172.26-.362.208l-2.017-.52c-.207-.052-.224-.173-.19-.312.276-1.456 1.655-2.531 4.07-2.531 2.55.017 3.982 1.248 3.982 3.52Zm-2.69 3.502v-.97c-.534-.018-1.086 0-1.62.051-1.035.122-1.57.451-1.57 1.231 0 .71.483 1.11 1.26 1.11.896 0 1.603-.486 1.93-1.422Zm9.966-7.004c1.276 0 2.12.763 2.517 1.855.759-1.11 1.672-1.855 2.948-1.855 1.776 0 2.793 1.422 2.793 3.537v6.622c0 .174-.155.278-.327.278H65.81c-.19 0-.327-.104-.327-.278v-6.137c0-.918-.397-1.473-1.12-1.473-.76 0-1.311.624-1.57 1.577v6.033c.017.139-.103.26-.241.278H60.259c-.173 0-.242-.104-.242-.278v-6.137c0-.918-.414-1.473-1.12-1.473-.776 0-1.328.659-1.57 1.612v6.016a.252.252 0 0 1-.224.277H54.828a.251.251 0 0 1-.276-.225V15.372c0-.139.12-.26.258-.26h2.155c.138-.017.26.087.276.243V16.534c.587-.867 1.466-1.665 2.742-1.665Zm19.793.226c.052.242-.017.416-.242.485l-1.948.572c-.241.07-.362-.017-.448-.243-.276-.918-.759-1.664-2.104-1.664-1.672 0-2.206 1.11-2.206 2.6v3.433c0 1.491.603 2.6 2.206 2.6 1.431 0 1.983-.814 2.207-1.82.052-.225.207-.33.449-.242l1.948.624c.224.07.293.242.241.485-.465 1.994-1.896 3.623-4.862 3.623-3.345 0-5.017-2.184-5.017-5.166V16.76c0-2.982 1.724-5.166 5.017-5.166 2.897 0 4.259 1.543 4.759 3.502Zm9.776 3.276v6.657c.017.139-.104.26-.242.278H87.26a.269.269 0 0 1-.293-.243v-1.127a3.186 3.186 0 0 1-2.794 1.578c-1.913 0-3.138-1.231-3.138-3.138 0-1.855 1.156-2.947 3.983-3.155a13.092 13.092 0 0 1 1.845-.018v-.745c0-.988-.517-1.387-1.396-1.387-.897 0-1.156.364-1.397.936-.086.226-.172.26-.362.208l-2.017-.52c-.207-.052-.224-.173-.19-.312.276-1.456 1.655-2.531 4.069-2.531 2.552.017 3.983 1.248 3.983 3.52Zm-2.707 3.502v-.97c-.535-.018-1.086 0-1.62.051-1.035.122-1.57.451-1.57 1.231 0 .71.483 1.11 1.259 1.11.914 0 1.603-.486 1.93-1.422Zm10.552-6.588v1.977c0 .242-.087.33-.328.33h-.293c-1.466 0-2.328.658-2.62 1.767v5.687a.252.252 0 0 1-.225.277h-2.327c-.138 0-.242-.121-.242-.26v-9.708c0-.139.104-.26.224-.26h2.121c.224 0 .276.138.276.294v1.37c.483-.902 1.38-1.786 2.948-1.786.397 0 .466.052.466.312ZM101 21.058v.382c0 1.075.552 1.82 1.845 1.82 1.258 0 1.621-.485 1.948-1.092.173-.277.242-.312.535-.19l1.448.745c.293.156.31.294.19.572-.621 1.421-2.19 2.236-4.121 2.236-2.931 0-4.483-1.75-4.483-4.143V19.03c0-2.323 1.448-4.143 4.448-4.143 2.862 0 4.259 1.82 4.259 4.091v1.63c0 .277-.086.468-.483.468L101 21.058Zm0-2.167v.347h3.535v-.347c0-.988-.552-1.768-1.759-1.768-1.207 0-1.776.78-1.776 1.768ZM16.293 3.566H3.983a.384.384 0 0 0-.38.382v17.994c0 6.415 5.173 11.633 11.57 11.633h1.12c6.38 0 11.552-5.2 11.552-11.633V15.2c.017-6.432-5.155-11.633-11.552-11.633Zm7.862 18.567c0 4.369-3.207 7.68-8.172 7.68-5.897 0-8.655-3.52-8.655-8.339v-5.842c0-4.82 2.758-8.339 8.655-8.339 4.776 0 6.93 2.74 7.793 5.479.12.416-.035.658-.362.78l-3.207.953c-.38.122-.586 0-.707-.381-.5-1.647-1.569-2.531-3.517-2.531-3.018 0-4.035 1.785-4.035 4.195v5.548c0 2.41 1 4.195 4.035 4.195 2.482 0 3.793-1.162 3.793-3.692v-.711h-3.31c-.26 0-.449-.156-.449-.468V17.59c0-.295.173-.485.448-.485h7.225c.293 0 .465.156.465.45v4.577Z" fill="#fff"/></svg>