<svg width="110" height="40" fill="none" xmlns="http://www.w3.org/2000/svg"><g clip-path="url(#a)"><path d="M49.509 26.577H46.28V13.733h3.228v12.844Z" fill="#fff"/><path d="M54.736 21.704c-.91 0-1.636-.73-1.636-1.64 0-.911.727-1.64 1.636-1.64.909.046 1.636.775 1.59 1.686-.09.82-.772 1.548-1.59 1.594Z" fill="#575757"/><path d="M64.69 13.733a9.137 9.137 0 0 1 2.5.228c1.364.319 2.364 1.549 2.455 2.96-.045 1.14-.682 2.141-1.727 2.596 1.818.547 2.727 1.64 2.727 3.325a3.526 3.526 0 0 1-2.5 3.462c-.773.228-1.59.319-2.41.319h-5.863v-12.89h4.818Zm-1.636 5.101h1.182c1.545 0 2.182-.41 2.182-1.412s-.637-1.412-2.091-1.412h-1.273v2.824Zm0 5.375h1.591c2 0 2.682-.41 2.682-1.549 0-1.184-.682-1.548-2.818-1.548h-1.41v3.097h-.045Z" fill="#fff"/><path d="M75.19 21.704c-.909 0-1.636-.73-1.636-1.64 0-.911.727-1.64 1.636-1.64.91.046 1.637.775 1.591 1.686-.045.82-.727 1.548-1.59 1.594Z" fill="#575757"/><path d="M92.736 26.577H89.28l-1-2.55H82.51l-.955 2.55H78.19l5.182-12.844h3.682l5.682 12.844Zm-9.364-4.782h3.955l-2.091-4.965-1.864 4.965Z" fill="#fff"/><path d="M95.645 21.704c-.91 0-1.636-.73-1.636-1.64 0-.911.727-1.64 1.636-1.64.91.046 1.636.775 1.59 1.686-.044.82-.726 1.548-1.59 1.594Z" fill="#575757"/><path d="m109.418 17.195-.228-.091c-1.181-.684-2.545-1.048-3.909-1.14-1.181 0-1.909.41-1.909 1.048 0 .547.637 1.003 2.091 1.503l1 .365c2.455.865 3.546 2.095 3.546 4.053 0 2.278-2 3.826-5 3.826-1.182 0-2.319-.273-3.364-.683a5.216 5.216 0 0 1-1.136-.547v-2.778c.636.456 1.363.82 2.045 1.093a5.945 5.945 0 0 0 2.364.501c1.272 0 1.954-.41 1.954-1.184 0-.638-.454-1.002-1.727-1.457l-.682-.228a12.561 12.561 0 0 1-2.136-.911 3.426 3.426 0 0 1-1.182-.957 3.825 3.825 0 0 1-.864-2.413c0-2.187 1.909-3.644 4.864-3.644 1.5 0 3 .364 4.364 1.002l-.091 2.642Z" fill="#fff"/><path d="M19.49.63.011 20.148l19.477 19.516 19.478-19.516L19.489.631Z" fill="#F9FBFF"/><path d="M22.044 20.143c0 2.732.818 5.374 2.41 7.56l1.59-1.23c-2.636-3.78-2.636-8.835 0-12.661l-1.59-1.23a13.117 13.117 0 0 0-2.41 7.56Zm3.41 0c0 1.958.59 3.871 1.726 5.51l1.591-1.229a7.743 7.743 0 0 1 0-8.471l-1.59-1.23c-1.137 1.548-1.728 3.461-1.728 5.42Zm3.408 0c0 1.23.364 2.414 1 3.416l1.591-1.23a4.328 4.328 0 0 1 0-4.327l-1.59-1.23c-.683.957-1 2.141-1 3.37ZM17.044 20.143c0-2.733-.818-5.375-2.409-7.56l-1.59 1.229c2.636 3.78 2.636 8.836 0 12.662l1.59 1.23a13.117 13.117 0 0 0 2.41-7.561Zm-3.409 0c0-1.959-.59-3.872-1.727-5.511l-1.591 1.275a7.743 7.743 0 0 1 0 8.471l1.59 1.23a9.4 9.4 0 0 0 1.728-5.465Zm-3.364 0c0-1.23-.363-2.414-1-3.416l-1.636 1.23a4.328 4.328 0 0 1 0 4.326l1.59 1.23c.683-.956 1.046-2.14 1.046-3.37Z" fill="#575757"/></g><defs><clipPath id="a"><path fill="#fff" transform="translate(0 .618)" d="M0 0h110v39.032H0z"/></clipPath></defs></svg>