<svg width="125" height="47" fill="none" xmlns="http://www.w3.org/2000/svg"><path d="M15.578 20.163c-.02.64-.146 2.419-1.666 3.68-1.645 1.365-4.436 1.675-6.456 1.675-.77 0-1.562-.02-2.333-.103-1.583-.186-3.394-.58-4.373-2.047-.604-.93-.667-1.902-.688-3.02h5.186c0 .166-.062.91.438 1.345.27.248.916.496 1.79.496.146 0 1.292-.02 1.958-.517.77-.579.688-1.695.688-1.902 0-.6.02-1.179.02-1.758-.25.393-.27.434-.5.6-.853.682-2.165.848-3.207.848-1.52 0-2.811-.29-4.04-1.22C1.354 17.433 0 15.759 0 12.595c0-.683.062-3.412 1.833-5.273C3.083 6 4.998 5.502 6.769 5.523c.416 0 2.02 0 3.207.93.25.187.395.332.75.807l-.021-1.344h4.936l-.021 13.44c0 .29 0 .538-.042.807ZM8.872 9.679a2.038 2.038 0 0 0-1.02-.227 2.38 2.38 0 0 0-1.02.227c-.813.393-1.355 1.282-1.355 3.081 0 1.2.271 1.944.625 2.337.188.227.417.351.687.475.105.062.5.166.917.166.229 0 .604 0 1.083-.228 1.145-.496 1.27-1.902 1.27-2.977 0-1.013-.104-2.316-1.187-2.854Zm17.703 10.504v-1.096c-.23.166-.5.393-1.063.662-.604.31-1.916.765-3.707.765-.354 0-1.333 0-2.29-.351-1.854-.724-2.854-2.316-2.854-4.24 0-.764.167-2.48 1.979-3.68 1.187-.785 2.707-.992 4.102-1.178a46.758 46.758 0 0 0 2.458-.372c.354-.083.75-.166 1.104-.27 0-.061 0-.434-.084-.66-.166-.58-.583-.993-1.853-.993-.417 0-.687.062-.833.082-.896.228-.979.951-1.062 1.262l-5.353.124c.063-.31.146-.58.188-.848.146-.558.437-1.53 1.583-2.42 1.145-.868 2.874-1.488 5.977-1.467 2.249 0 5.29.372 6.393 2.667.313.64.417 1.2.417 2.523l-.02 7.754c0 1.033.145 1.26.499 1.757l-5.581-.02Zm-2.458-5.955c-.604.145-1.479.331-1.916.869-.063.083-.25.33-.25.662 0 .434.354 1.095 1.416 1.095.5 0 .937-.165 1.396-.392 1.603-.848 1.52-2.254 1.52-2.916-.729.269-1.437.476-2.166.682Zm34.489 6.018.02-8.995c0-.89 0-1.654-.27-2.481-.688-2.089-2.479-2.689-3.208-2.895-.854-.248-1.52-.228-1.874-.228-2.333-.041-3.52.869-4.186 1.551-.188.186-.5.496-.75 1.075-.312-.558-.5-.889-.708-1.096-1.375-1.55-3.77-1.55-4.27-1.55-1.957 0-3.165.744-3.748 1.282-.23.227-.438.496-.77 1.075V5.957h-5.52l-.02 14.247h5.727l.02-7.733c0-.434.084-.724.146-.89.396-1.178 1.583-1.323 1.979-1.323.437 0 1.583.145 1.916 1.344.083.331.083.559.083.89l-.041 7.712h5.706l.02-7.588c0-.352 0-.641.084-.972.354-1.262 1.562-1.365 2-1.365 2.165 0 1.999 1.923 1.999 2.481l-.021 7.444 5.685.041Zm14.078-.476c-.979.579-2.103.848-3.249.848-1.458 0-2.499-.476-2.999-.807-.25-.186-.416-.393-.604-.6v1.055h-5.519L60.334.85h5.686l.02 6.162c.25-.248.438-.414.75-.641.833-.558 1.854-.765 2.874-.765 1.77 0 3.27.62 4.457 1.902.854.93 1.791 2.481 1.791 5.335.021.806-.041 5.004-3.228 6.927Zm-2.978-9.305c-.5-.724-1.27-.827-1.583-.827-.229 0-.75.062-1.208.414-.916.744-1.02 1.985-1.02 3.06 0 .992.104 2.316.937 2.977.167.145.625.435 1.27.435.25 0 .917-.083 1.437-.6.48-.496.77-1.365.77-2.812 0-.89-.082-1.902-.603-2.647Zm12.933 9.801L82.681.85h-5.727l-.021 19.416h5.706Zm1.729-15.632V.871h5.706v3.763h-5.706Zm-.042 15.653.02-14.247h5.707l-.02 14.247h-5.707Zm22.763.02.021-8.994c0-1.013-.083-1.51-.187-1.985-.229-.93-.688-1.861-1.437-2.481-1.354-1.158-3.124-1.18-3.645-1.18-1.458 0-2.999.373-4.04 1.428-.271.268-.334.33-.688.847V6.04H91.74l-.02 14.247h5.685l.02-7.589c0-.6-.02-2.336 2.084-2.336 1.291 0 1.707.682 1.853 1.178.083.331.083.641.083.972l-.02 7.775 5.664.02Zm16.724.021c-.021.641-.146 2.42-1.666 3.68-1.625 1.366-4.436 1.676-6.456 1.676-.771 0-1.562-.021-2.333-.104-1.583-.186-3.415-.579-4.374-2.047-.603-.93-.666-1.902-.687-3.019h5.186c0 .166-.062.91.437 1.344.271.248.917.497 1.791.497.146 0 1.292-.021 1.958-.517.771-.58.687-1.696.687-1.903 0-.6.021-1.178.021-1.757-.25.393-.271.434-.5.6-.854.682-2.166.847-3.207.847-1.52 0-2.832-.269-4.04-1.22-1.042-.806-2.395-2.481-2.395-5.645 0-.682.062-3.412 1.832-5.272 1.25-1.324 3.166-1.82 4.936-1.8.417 0 2.02 0 3.208.931.25.186.395.33.749.807l-.02-1.345h4.935l-.02 13.44c0 .29 0 .538-.042.807Zm-6.706-10.483a2.04 2.04 0 0 0-1.021-.228c-.354 0-.729.083-1.02.228-.812.393-1.354 1.282-1.354 3.08 0 1.2.271 1.944.625 2.337.187.228.416.352.687.476.104.062.5.165.917.165.229 0 .603 0 1.082-.227 1.146-.496 1.271-1.902 1.271-2.978 0-.992-.104-2.316-1.187-2.853ZM29.094 41.77c1.542 0 3.124-.248 3.603-.29v-3.867c-.562.104-.687.104-1.02.104-1.5 0-1.583-.91-1.583-1.489l.104-5.48h2.5v-3.08H30.26l.041-4.487h-5.727l-.083 4.466h-2v3.08h1.958l-.104 6.907c0 .496.02 1.013.167 1.53.437 1.448 1.562 2.585 4.581 2.606Zm26.554-6.266s0 .662.125 1.096c.188.559.75 1.592 2.27 1.572.875 0 1.354-.31 1.625-.538.583-.475.854-1.096.979-1.282l4.665 1.965c-.146.227-.313.516-.688.95-1 1.159-2.145 1.779-2.624 2.027-.687.33-2.187.91-4.228.91-1.187 0-2.332-.166-3.394-.6-2.958-1.22-4.54-4.073-4.52-7.175 0-2.936 1.375-4.756 2.187-5.541 2.062-1.944 4.894-2.089 5.707-2.089.978 0 3.894.145 5.977 2.378a7.168 7.168 0 0 1 1.52 2.647c.375 1.24.417 2.44.417 3.742l-10.018-.062Zm4.082-3.784c-.375-1.178-1.437-1.344-1.874-1.344a2.18 2.18 0 0 0-.896.228c-1.062.455-1.187 1.613-1.25 1.923h4.145c-.02-.166-.02-.455-.125-.807Zm16.224.104c.27 0 .562.02.833.062V27.11c-1.5 0-2.708.042-3.978.93-.312.187-.5.352-.77.6V27.4H66.56l-.02 14.247h5.664l.02-6.7c0-.496 0-.889.168-1.344.687-1.944 3.123-1.799 3.56-1.778Zm10.725 9.842v-1.096c-.229.166-.5.393-1.062.662-.604.31-1.916.765-3.707.765-.354 0-1.333 0-2.29-.351-1.854-.724-2.854-2.316-2.854-4.24 0-.764.167-2.48 1.979-3.68 1.187-.806 2.707-.992 4.102-1.178a50.316 50.316 0 0 0 2.458-.373c.354-.082.75-.165 1.104-.269 0-.061 0-.434-.084-.661-.166-.58-.583-.993-1.853-.993-.417 0-.687.062-.833.083-.896.228-.98.951-1.062 1.261l-5.353.124c.063-.31.146-.579.188-.847.145-.559.437-1.53 1.582-2.42 1.146-.868 2.874-1.488 5.978-1.468 2.249 0 5.29.372 6.393 2.668.313.64.417 1.22.417 2.522l-.02 7.754c0 1.055.145 1.262.499 1.758l-5.582-.02Zm-2.457-5.976c-.604.145-1.458.331-1.916.869-.063.083-.25.33-.25.662 0 .434.354 1.096 1.416 1.096.5 0 .937-.166 1.396-.393 1.603-.848 1.52-2.254 1.52-2.916-.73.269-1.437.496-2.166.682Zm18.515 6.348c-.417 0-1.916 0-3.103-.806a7.745 7.745 0 0 1-.605-.517v6.12h-5.602l.021-19.415h5.56v1.095c.271-.33.396-.434.563-.558.521-.413 1.604-.93 3.249-.93 4.478 0 6.248 3.639 6.248 7.588 0 4.032-1.875 7.444-6.331 7.423Zm.104-10.09c-.5-.662-1.25-.765-1.521-.765-.229 0-.666.02-1.103.269-1.167.62-1.23 2.067-1.23 3.184 0 1.096.084 2.564 1.188 3.164.437.248.812.248 1 .248.25 0 .645-.021 1.103-.29 1.021-.64 1.167-2.005 1.167-3.04 0-.889-.063-2.026-.604-2.77ZM125 27.483h-5.915c-.021.165-2.166 9.284-2.166 9.284l-2.041-9.284h-5.956l4.519 13.088c.229.641.438 1.241.438 1.448 0 .517-.396.682-1.187.682-.563 0-1.083-.062-1.625-.083v4.032l1.583.166c.479.062.979.02 1.437.02 1.416 0 2.52.021 3.665-.868 1.083-.889 1.583-2.171 2.021-3.432L125 27.483ZM48.713 30.46c-.23-1.2-.791-1.923-1.166-2.274-1.02-1.014-2.604-1.427-3.978-1.427-2.083 0-3.374.786-3.936 1.323-.188.186-.334.331-.646.724l.02-6.596h-5.685l-.02 19.416h5.664l.021-10.153h5.06l-.02 10.153h4.81l.022-9.284c.02-.724 0-1.179-.146-1.882Z" fill="#000"/></svg>