<svg width="32" height="45" fill="none" xmlns="http://www.w3.org/2000/svg"><path d="M7.548 36.767c.65.423 1.477.55 2.255.281l5.358-1.826a2.597 2.597 0 0 1 1.678 0l5.358 1.826a2.59 2.59 0 0 0 2.255-.28V45L16 42.129 7.548 45v-8.233Zm7.77-5.01-4.357 1.486a2.112 2.112 0 0 1-2.582-1.078l-2.124-4.366a2.114 2.114 0 0 0-.908-.945L1.12 24.613a2.114 2.114 0 0 1-1.025-2.497l1.5-4.806c.128-.41.128-.85 0-1.26l-1.5-4.806a2.115 2.115 0 0 1 1.027-2.499l4.224-2.24c.395-.21.713-.54.908-.944L8.38 1.19A2.113 2.113 0 0 1 10.96.113L15.318 1.6c.442.152.922.152 1.365 0L21.038.113a2.112 2.112 0 0 1 2.582 1.078l2.124 4.368c.195.404.513.735.908.945l4.226 2.241a2.114 2.114 0 0 1 1.025 2.497l-1.5 4.806c-.128.41-.128.85 0 1.26l1.5 4.806a2.116 2.116 0 0 1-1.027 2.499l-4.224 2.24c-.395.21-.713.541-.908.944l-2.124 4.37a2.114 2.114 0 0 1-2.582 1.076l-4.357-1.486a2.112 2.112 0 0 0-1.364 0ZM16 10.335a2.112 2.112 0 0 0-2.113 2.115v8.456a2.115 2.115 0 0 0 3.607 1.495c.396-.396.619-.934.619-1.495V12.45A2.115 2.115 0 0 0 16 10.335Z" fill="#F7AA13"/><path d="M16 10.335a2.112 2.112 0 0 0-2.113 2.115v8.456a2.115 2.115 0 0 0 3.607 1.495c.396-.396.619-.934.619-1.495V12.45A2.115 2.115 0 0 0 16 10.335Z" fill="#F7AA13"/></svg>