<svg xmlns="http://www.w3.org/2000/svg" xmlns:xlink="http://www.w3.org/1999/xlink">
 
  <symbol id="button" xmlns="http://www.w3.org/2000/svg">
    <circle cx="15.5" cy="15.5" r="15.5" stroke="none" transform="rotate(-180 15.5 15.5)"/>
    <path d="M15 21L20 15.5L15 10" stroke-linecap="round"/>
  </symbol>

  <symbol id="exit" viewBox="0 0 30 30" xmlns="http://www.w3.org/2000/svg">
    <rect y="1.88599" width="1.66724" height="40.0139" rx="0.833622" transform="rotate(-45 0 1.88599)"/>
    <rect width="1.66724" height="40.0139" rx="0.833622" transform="matrix(-0.707107 -0.707107 -0.707107 0.707107 30.0625 1.88599)"/>
  </symbol>
  
  <symbol id="v" viewBox="0 0 62 66" xmlns="http://www.w3.org/2000/svg">
    <path d="M0 0H14.5882L24.7544 31C26.2436 35.6061 28.1431 42.3939 30.4529 51.3636L31 53.7273C33.3706 43.9091 35.4221 36.3333 37.1544 31L47.4574 0H62L39.7985 66H22.2471L0 0Z"/>
  </symbol>  <!-- dark2 -->
  
  <symbol id="s" viewBox="0 0 45 65" xmlns="http://www.w3.org/2000/svg">
    <path d="M25.3733 0.000540743C30.6778 -0.0286594 36.6454 1.12475 43.276 3.46075L40.4912 13.9728C34.332 11.812 29.3222 10.7316 25.4617 10.7316C22.3379 10.7316 19.8772 11.3448 18.0796 12.5712C16.2819 13.7976 15.3831 15.462 15.3831 17.5644C15.3831 19.842 16.2083 21.6524 17.8585 22.9956C19.5383 24.3388 22.5884 25.5798 27.0088 26.7186C33.5216 28.3831 38.1483 30.6899 40.889 33.6391C43.6297 36.5591 45 40.5887 45 45.7279C45 51.9475 42.8782 56.7218 38.6346 60.0506C34.4204 63.3502 28.3939 65 20.555 65C14.1601 65 7.30845 63.5692 0 60.7076L3.27112 50.5021C7.30845 51.9329 10.609 52.9404 13.1729 53.5244C15.7367 54.0792 18.168 54.3566 20.4666 54.3566C23.7967 54.3566 26.3605 53.6558 28.1582 52.2541C29.9853 50.8233 30.8988 48.8523 30.8988 46.3411C30.8988 44.7351 30.5157 43.3919 29.7495 42.3115C28.9833 41.2311 27.6866 40.2675 25.8595 39.4207C24.0324 38.5447 21.3949 37.6833 17.947 36.8365C12.2004 35.4641 8.00098 33.3325 5.34872 30.4417C2.69646 27.5508 1.37033 23.7402 1.37033 19.0098C1.37033 12.9654 3.46267 8.29337 7.64735 4.99376C11.8615 1.66495 17.7701 0.000540743 25.3733 0.000540743Z"/>
  </symbol> <!-- dark -->
  
</svg> 
