<svg width="46" height="46" viewBox="0 0 46 46" fill="none" xmlns="http://www.w3.org/2000/svg">
<path d="M34.5 9.58323H36.4167V11.4999C36.4167 12.0082 36.6186 12.4957 36.978 12.8552C37.3375 13.2146 37.825 13.4166 38.3333 13.4166C38.8417 13.4166 39.3292 13.2146 39.6886 12.8552C40.0481 12.4957 40.25 12.0082 40.25 11.4999V9.58323H42.1667C42.675 9.58323 43.1625 9.3813 43.522 9.02186C43.8814 8.66241 44.0833 8.1749 44.0833 7.66657C44.0833 7.15824 43.8814 6.67072 43.522 6.31128C43.1625 5.95183 42.675 5.7499 42.1667 5.7499H40.25V3.83323C40.25 3.3249 40.0481 2.83739 39.6886 2.47795C39.3292 2.1185 38.8417 1.91657 38.3333 1.91657C37.825 1.91657 37.3375 2.1185 36.978 2.47795C36.6186 2.83739 36.4167 3.3249 36.4167 3.83323V5.7499H34.5C33.9917 5.7499 33.5042 5.95183 33.1447 6.31128C32.7853 6.67072 32.5833 7.15824 32.5833 7.66657C32.5833 8.1749 32.7853 8.66241 33.1447 9.02186C33.5042 9.3813 33.9917 9.58323 34.5 9.58323ZM13.4167 13.4166V32.5832C13.4167 33.0916 13.6186 33.5791 13.978 33.9385C14.3375 34.298 14.825 34.4999 15.3333 34.4999C15.8417 34.4999 16.3292 34.298 16.6886 33.9385C17.0481 33.5791 17.25 33.0916 17.25 32.5832V13.4166C17.25 12.9082 17.0481 12.4207 16.6886 12.0613C16.3292 11.7018 15.8417 11.4999 15.3333 11.4999C14.825 11.4999 14.3375 11.7018 13.978 12.0613C13.6186 12.4207 13.4167 12.9082 13.4167 13.4166ZM41.4 17.2499C41.1533 17.3002 40.9189 17.3986 40.7103 17.5395C40.5016 17.6804 40.3228 17.861 40.184 18.071C40.0451 18.281 39.949 18.5164 39.9012 18.7635C39.8533 19.0107 39.8546 19.2649 39.905 19.5116C40.6533 23.146 40.2098 26.9248 38.6402 30.2871C37.0706 33.6495 34.4587 36.416 31.1921 38.1762C27.9255 39.9364 24.1784 40.5963 20.507 40.058C16.8356 39.5197 13.4357 37.8119 10.8119 35.188C8.18803 32.5642 6.48022 29.1643 5.94192 25.4929C5.40362 21.8215 6.06354 18.0744 7.8237 14.8078C9.58387 11.5412 12.3505 8.92926 15.7128 7.35968C19.0751 5.7901 22.8539 5.34656 26.4883 6.0949C26.9967 6.19657 27.5246 6.09214 27.9559 5.80458C28.3872 5.51702 28.6867 5.0699 28.7883 4.56157C28.89 4.05324 28.7856 3.52534 28.498 3.094C28.2105 2.66267 27.7633 2.36323 27.255 2.26157C25.8523 2.00023 24.4264 1.88462 23 1.91657C18.8301 1.91657 14.7539 3.15308 11.2867 5.46975C7.81959 7.78642 5.11729 11.0792 3.52154 14.9317C1.92579 18.7841 1.50827 23.0233 2.32178 27.1131C3.13528 31.2028 5.14327 34.9595 8.09183 37.9081C11.0404 40.8566 14.7971 42.8646 18.8868 43.6781C22.9766 44.4916 27.2158 44.0741 31.0682 42.4784C34.9207 40.8826 38.2135 38.1803 40.5302 34.7132C42.8468 31.246 44.0833 27.1698 44.0833 22.9999C44.0874 21.5836 43.9461 20.1707 43.6617 18.7832C43.6158 18.5331 43.5205 18.2946 43.3815 18.0816C43.2425 17.8687 43.0625 17.6855 42.852 17.5428C42.6415 17.4001 42.4048 17.3007 42.1555 17.2504C41.9062 17.2001 41.6494 17.1999 41.4 17.2499ZM21.0833 17.2499V19.1666C21.0918 20.585 21.6242 21.9503 22.5783 22.9999C21.6242 24.0495 21.0918 25.4148 21.0833 26.8332V28.7499C21.0833 30.2749 21.6891 31.7374 22.7675 32.8158C23.8458 33.8941 25.3083 34.4999 26.8333 34.4999H28.75C30.275 34.4999 31.7375 33.8941 32.8159 32.8158C33.8942 31.7374 34.5 30.2749 34.5 28.7499V26.8332C34.4915 25.4148 33.9591 24.0495 33.005 22.9999C33.9591 21.9503 34.4915 20.585 34.5 19.1666V17.2499C34.5 15.7249 33.8942 14.2624 32.8159 13.184C31.7375 12.1057 30.275 11.4999 28.75 11.4999H26.8333C25.3083 11.4999 23.8458 12.1057 22.7675 13.184C21.6891 14.2624 21.0833 15.7249 21.0833 17.2499ZM30.6667 28.7499C30.6667 29.2582 30.4647 29.7457 30.1053 30.1052C29.7458 30.4646 29.2583 30.6666 28.75 30.6666H26.8333C26.325 30.6666 25.8375 30.4646 25.478 30.1052C25.1186 29.7457 24.9167 29.2582 24.9167 28.7499V26.8332C24.9167 26.3249 25.1186 25.8374 25.478 25.4779C25.8375 25.1185 26.325 24.9166 26.8333 24.9166H28.75C29.2583 24.9166 29.7458 25.1185 30.1053 25.4779C30.4647 25.8374 30.6667 26.3249 30.6667 26.8332V28.7499ZM30.6667 17.2499V19.1666C30.6667 19.6749 30.4647 20.1624 30.1053 20.5219C29.7458 20.8813 29.2583 21.0832 28.75 21.0832H26.8333C26.325 21.0832 25.8375 20.8813 25.478 20.5219C25.1186 20.1624 24.9167 19.6749 24.9167 19.1666V17.2499C24.9167 16.7416 25.1186 16.2541 25.478 15.8946C25.8375 15.5352 26.325 15.3332 26.8333 15.3332H28.75C29.2583 15.3332 29.7458 15.5352 30.1053 15.8946C30.4647 16.2541 30.6667 16.7416 30.6667 17.2499Z" fill="white"/>
</svg>
