<svg width="242" height="86" viewBox="0 0 242 86" fill="none" xmlns="http://www.w3.org/2000/svg">
<g clip-path="url(#clip0_35_572)">
<path d="M108.919 56.9959H101.819V28.7959H108.919V56.9959Z" fill="white"/>
<path d="M120.419 46.2959C118.419 46.2959 116.819 44.6959 116.819 42.6959C116.819 40.6959 118.419 39.0959 120.419 39.0959C122.419 39.1959 124.019 40.7959 123.919 42.7959C123.719 44.5959 122.219 46.1959 120.419 46.2959Z" fill="#575757"/>
<path d="M142.319 28.796C144.219 28.696 146.019 28.896 147.819 29.296C150.819 29.996 153.019 32.696 153.219 35.796C153.119 38.296 151.719 40.496 149.419 41.496C153.419 42.696 155.419 45.096 155.419 48.796C155.519 52.296 153.219 55.396 149.919 56.396C148.219 56.896 146.419 57.096 144.619 57.096H131.719V28.796H142.319ZM138.719 39.996H141.319C144.719 39.996 146.119 39.096 146.119 36.896C146.119 34.696 144.719 33.796 141.519 33.796H138.719V39.996ZM138.719 51.796H142.219C146.619 51.796 148.119 50.896 148.119 48.396C148.119 45.796 146.619 44.996 141.919 44.996H138.819V51.796H138.719Z" fill="white"/>
<path d="M165.419 46.2959C163.419 46.2959 161.819 44.6959 161.819 42.6959C161.819 40.6959 163.419 39.0959 165.419 39.0959C167.419 39.1959 169.019 40.7959 168.919 42.7959C168.819 44.5959 167.319 46.1959 165.419 46.2959Z" fill="#575757"/>
<path d="M204.019 56.9959H196.419L194.219 51.3959H181.519L179.419 56.9959H172.019L183.419 28.7959H191.519L204.019 56.9959ZM183.419 46.4959H192.119L187.519 35.5959L183.419 46.4959Z" fill="white"/>
<path d="M210.419 46.2959C208.419 46.2959 206.819 44.6959 206.819 42.6959C206.819 40.6959 208.419 39.0959 210.419 39.0959C212.419 39.1959 214.019 40.7959 213.919 42.7959C213.819 44.5959 212.319 46.1959 210.419 46.2959Z" fill="#575757"/>
<path d="M240.719 36.396L240.219 36.196C237.619 34.696 234.619 33.896 231.619 33.696C229.019 33.696 227.419 34.596 227.419 35.996C227.419 37.196 228.819 38.196 232.019 39.296L234.219 40.096C239.619 41.996 242.019 44.696 242.019 48.996C242.019 53.996 237.619 57.396 231.019 57.396C228.419 57.396 225.919 56.796 223.619 55.896C222.719 55.596 221.919 55.196 221.119 54.696V48.596C222.519 49.596 224.119 50.396 225.619 50.996C227.219 51.696 229.019 52.096 230.819 52.096C233.619 52.096 235.119 51.196 235.119 49.496C235.119 48.096 234.119 47.296 231.319 46.296L229.819 45.796C228.219 45.296 226.619 44.596 225.119 43.796C224.119 43.296 223.219 42.596 222.519 41.696C221.319 40.196 220.619 38.396 220.619 36.396C220.619 31.596 224.819 28.396 231.319 28.396C234.619 28.396 237.919 29.196 240.919 30.596L240.719 36.396Z" fill="white"/>
<path d="M42.8765 0.0285073L0.0263672 42.8787L42.8766 85.7289L85.7268 42.8788L42.8765 0.0285073Z" fill="#F9FBFF"/>
<path d="M48.4971 42.869C48.4971 48.869 50.2971 54.669 53.7971 59.469L57.2971 56.769C51.4971 48.469 51.4971 37.369 57.2971 28.969L53.7971 26.269C50.3971 31.069 48.4971 36.869 48.4971 42.869ZM55.9971 42.869C55.9971 47.169 57.2971 51.369 59.7971 54.969L63.2971 52.269C59.5971 46.669 59.5971 39.269 63.2971 33.669L59.7971 30.969C57.2971 34.369 55.9971 38.569 55.9971 42.869ZM63.4971 42.869C63.4971 45.569 64.2971 48.169 65.6971 50.369L69.1971 47.669C67.4971 44.769 67.4971 41.069 69.1971 38.169L65.6971 35.469C64.1971 37.569 63.4971 40.169 63.4971 42.869Z" fill="#575757"/>
<path d="M37.4971 42.869C37.4971 36.869 35.6971 31.069 32.1971 26.269L28.6971 28.969C34.4971 37.269 34.4971 48.369 28.6971 56.769L32.1971 59.469C35.5971 54.669 37.4971 48.869 37.4971 42.869ZM29.9971 42.869C29.9971 38.569 28.6971 34.369 26.1971 30.769L22.6971 33.569C26.3971 39.169 26.3971 46.569 22.6971 52.169L26.1971 54.869C28.6971 51.369 29.9971 47.169 29.9971 42.869ZM22.5971 42.869C22.5971 40.169 21.7971 37.569 20.3971 35.369L16.7971 38.069C18.4971 40.969 18.4971 44.669 16.7971 47.569L20.2971 50.269C21.7971 48.169 22.5971 45.569 22.5971 42.869Z" fill="#575757"/>
</g>
<defs>
<clipPath id="clip0_35_572">
<rect width="242" height="85.7" fill="white"/>
</clipPath>
</defs>
</svg>
