<svg width="21" height="17" viewBox="0 0 21 17" fill="none" xmlns="http://www.w3.org/2000/svg">
<g clip-path="url(#clip0_99_2231)">
<path d="M17.325 14.5H3.675C3.38625 14.5 3.15 14.725 3.15 15V16C3.15 16.275 3.38625 16.5 3.675 16.5H17.325C17.6137 16.5 17.85 16.275 17.85 16V15C17.85 14.725 17.6137 14.5 17.325 14.5ZM19.425 4.5C18.5555 4.5 17.85 5.17188 17.85 6C17.85 6.22188 17.9025 6.42812 17.9944 6.61875L15.6187 7.975C15.1134 8.2625 14.4605 8.1 14.1684 7.6125L11.4942 3.15625C11.8453 2.88125 12.075 2.46875 12.075 2C12.075 1.17188 11.3695 0.5 10.5 0.5C9.63047 0.5 8.925 1.17188 8.925 2C8.925 2.46875 9.15469 2.88125 9.50578 3.15625L6.83156 7.6125C6.53953 8.1 5.88328 8.2625 5.38125 7.975L3.00891 6.61875C3.0975 6.43125 3.15328 6.22188 3.15328 6C3.15328 5.17188 2.44781 4.5 1.57828 4.5C0.70875 4.5 0 5.17188 0 6C0 6.82812 0.705469 7.5 1.575 7.5C1.66031 7.5 1.74562 7.4875 1.82766 7.475L4.2 13.5H16.8L19.1723 7.475C19.2544 7.4875 19.3397 7.5 19.425 7.5C20.2945 7.5 21 6.82812 21 6C21 5.17188 20.2945 4.5 19.425 4.5Z" fill="#FFB21C"/>
</g>
<defs>
<clipPath id="clip0_99_2231">
<rect width="21" height="16" fill="white" transform="translate(0 0.5)"/>
</clipPath>
</defs>
</svg>
