<svg width="69" height="69" viewBox="0 0 69 69" fill="none" xmlns="http://www.w3.org/2000/svg">
<path d="M43.125 52.6125C41.8313 52.6125 40.9688 52.1813 39.675 51.75L34.5 49.5938L29.325 51.75C28.4625 52.1813 27.1688 52.6125 25.875 52.6125C25.0125 52.6125 24.5813 52.6125 23.7188 52.1813L21.5625 69L34.5 60.375L47.4375 69L44.85 52.1813C44.4188 52.6125 43.5563 52.6125 43.125 52.6125ZM55.6313 25.4438C55.2 24.5813 55.2 23.2875 55.6313 22.425L58.2188 17.25C59.0813 15.525 58.2188 13.3688 56.0625 12.5063L50.4563 10.35C49.5938 9.91875 48.7313 9.05625 48.3 8.19375L46.1438 2.5875C45.7125 0.8625 44.4188 0 43.125 0C42.6938 0 41.8313 0 41.4 0.43125L35.7938 3.01875H34.5C34.0688 3.01875 33.6375 3.01875 33.2063 2.5875L27.6 0.43125C27.1688 0 26.3063 0 25.875 0C24.5813 0 23.2875 0.8625 22.425 2.15625L20.2688 8.19375C20.2688 9.05625 19.4063 9.91875 18.5438 10.35L12.5063 12.5063C10.7813 12.9375 9.91876 15.0938 10.7813 17.25L13.3688 22.8563C13.8 23.7188 13.8 25.0125 13.3688 25.875L10.7813 31.05C9.91876 32.775 10.7813 34.9313 12.9375 35.7938L18.5438 37.95C19.4063 38.3813 20.2688 39.2438 20.7 40.1063L22.8563 45.7125C23.2875 47.4375 24.5813 48.3 25.875 48.3C26.3063 48.3 26.7375 48.3 27.1688 47.8688L32.775 45.2812C33.2063 45.2812 33.6375 44.85 34.0688 44.85C34.5 44.85 34.9313 44.85 35.3625 45.2812L40.9688 47.8688C41.4 48.3 41.8313 48.3 42.2625 48.3C43.5563 48.3 44.85 47.4375 45.7125 46.1437L47.8688 40.5375C48.3 39.675 49.1625 38.8125 50.025 38.3812L55.6313 36.225C57.3563 35.3625 58.65 33.2062 57.7875 31.4813L55.6313 25.4438ZM34.5 41.4C25.0125 41.4 17.25 33.6375 17.25 24.15C17.25 14.6625 25.0125 6.9 34.5 6.9C43.9875 6.9 51.75 14.6625 51.75 24.15C51.75 33.6375 43.9875 41.4 34.5 41.4Z" fill="#FFB21C"/>
<path d="M47.4375 24.15C47.4375 27.5813 46.0744 30.872 43.6482 33.2982C41.2219 35.7245 37.9312 37.0875 34.5 37.0875C31.0688 37.0875 27.7781 35.7245 25.3518 33.2982C22.9256 30.872 21.5625 27.5813 21.5625 24.15C21.5625 20.7188 22.9256 17.4281 25.3518 15.0018C27.7781 12.5756 31.0688 11.2125 34.5 11.2125C37.9312 11.2125 41.2219 12.5756 43.6482 15.0018C46.0744 17.4281 47.4375 20.7188 47.4375 24.15Z" fill="#FFB21C"/>
</svg>
